<?xml version="1.0" encoding="UTF-8"?>
<svg version="1.1" xmlns="http://www.w3.org/2000/svg" width="512" height="512">
<path d="M0 0 C0.33 0 0.66 0 1 0 C1.15855469 1.30453125 1.31710938 2.6090625 1.48046875 3.953125 C3.37611914 21.25818532 3.37611914 21.25818532 12.3125 35.6875 C15.98429068 38.37961551 19.45992713 39.38581647 24 39 C30.67803105 36.9275076 35.95159042 33.36772665 39.265625 27.1875 C39.94169069 25.79868288 40.60303894 24.40261157 41.25 23 C41.75660156 21.95199219 41.75660156 21.95199219 42.2734375 20.8828125 C43.98778936 17.30562161 45.58113549 13.70642159 47 10 C49.70808881 12.70808881 49.46604566 14.5942589 49.875 18.375 C51.24201843 28.63815375 53.4843687 38.44491656 61 46 C64.83737109 48.66484103 68.83756827 48.17389544 73.31640625 47.6015625 C80.63465918 45.96108077 86.66532449 41.80710283 92.40625 37.13671875 C94 36 94 36 96 36 C96.38671875 37.22976562 96.7734375 38.45953125 97.171875 39.7265625 C97.69742847 41.3595322 98.22349751 42.99233603 98.75 44.625 C99.00265625 45.43324219 99.2553125 46.24148437 99.515625 47.07421875 C101.10073556 51.94843372 102.73026427 56.0156025 106 60 C112.42934509 61.35354633 116.63568904 59.09697626 122.17578125 55.8671875 C126.00227267 53.33736329 129.51844034 50.51704457 133.00390625 47.5390625 C135 46 135 46 137 46 C136.835 46.86625 136.67 47.7325 136.5 48.625 C135.18497469 58.30123101 134.52848986 68.50514867 140 77 C145.29771785 83.21483805 151.28746399 86.55259818 159 89 C158.855625 89.556875 158.71125 90.11375 158.5625 90.6875 C156.69052696 98.38338916 155.62239223 104.98890114 159.69140625 112.18359375 C165.02783775 119.59087927 174.78750922 122.05776528 183.37109375 123.609375 C184.67240234 123.80273438 184.67240234 123.80273438 186 124 C184.83622134 126.32755732 183.65982633 128.6395265 182.4375 130.9375 C181.129169 133.72481386 180.53314704 135.99914383 180 139 C194.62033931 133.56209239 207.4241319 125.12629575 220 116 C219.67 113.03 219.34 110.06 219 107 C220.32 106.67 221.64 106.34 223 106 C224.32 107.65 225.64 109.3 227 111 C227.763125 110.175 228.52625 109.35 229.3125 108.5 C232 106 232 106 235 106 C235.33 106.66 235.66 107.32 236 108 C236.99 108.33 237.98 108.66 239 109 C238.67 110.32 238.34 111.64 238 113 C238.99 113 239.98 113 241 113 C241 115.31 241 117.62 241 120 C239.515 120.86625 239.515 120.86625 238 121.75 C237.35675781 122.12898438 236.71351563 122.50796875 236.05078125 122.8984375 C234 124 234 124 232.10546875 124.6640625 C226.18338402 126.85921407 223.40875129 131.18979188 219.99511719 136.2265625 C212.94946872 146.61074796 204.75438545 156.06840375 195 164 C196.30068506 166.96758242 197.53649171 168.686745 200.125 170.625 C201.07375 171.40875 202.0225 172.1925 203 173 C203 173.66 203 174.32 203 175 C202.1646875 175.03867187 202.1646875 175.03867187 201.3125 175.078125 C192.31400984 175.7469317 185.12423952 179.30354618 179 186 C176.09592967 189.94719903 174.65369628 193.50103535 174.9375 198.4375 C176.1485625 205.59265496 180.30652682 211.61119746 185 217 C183.783125 217.391875 182.56625 217.78375 181.3125 218.1875 C174.28247803 220.86088864 170.30415624 226.45498553 167 233 C164.69837311 239.90488068 167.34698334 246.51223951 170 253 C171.48456468 255.56096438 173.05395015 257.92593844 174.828125 260.29296875 C176 262 176 262 176 264 C174.92298828 263.67515625 174.92298828 263.67515625 173.82421875 263.34375 C166.8784183 261.47539023 160.36384327 260.65244144 153.1875 260.5625 C152.40012451 260.54058594 151.61274902 260.51867187 150.80151367 260.49609375 C143.584222 260.52038673 138.35164509 262.70061369 133.1875 267.75 C131.3485363 270.48217464 130.51916842 272.21505191 129.5625 275.25 C128.875 277.3203125 128.875 277.3203125 128 279 C125.0625 280.125 125.0625 280.125 122 281 C115.92575209 288.55176767 116.49261265 296.73738692 117 306 C117.50633277 310.36767054 118.18408415 314.68001696 119 319 C118.34 319 117.68 319 117 319 C116.67128906 318.24976563 116.34257812 317.49953125 116.00390625 316.7265625 C111.3916924 306.80217822 105.39651942 297.42814716 95 293 C88.01780113 291.18980029 82.04843448 292.50454157 75.6875 295.625 C72.71966924 298.24773416 71.42556574 300.51877302 69.859375 304.09765625 C69 306 69 306 67 309 C66.41734375 308.71125 65.8346875 308.4225 65.234375 308.125 C58.49523583 305.07331434 52.37362097 303.69994031 45 305 C38.50137743 307.74084976 34.90469182 311.68545257 32 318 C28.7126973 316.90423243 28.37489216 316.41029968 26.4375 313.75 C21.97964611 308.37174344 16.23510979 305.5019998 9.375 304.4375 C2.2379698 305.62700503 -2.62737989 308.81252607 -7.19921875 314.3828125 C-11.98504215 321.33834759 -16.02666151 329.10631456 -19 337 C-19.33 337 -19.66 337 -20 337 C-20.02187378 335.83766846 -20.02187378 335.83766846 -20.04418945 334.65185547 C-19.77012022 311.04437472 -19.77012022 311.04437472 -27 289 C-30.82585554 286.44942964 -32.44263092 286.48545833 -37 287 C-48.57256685 291.42291052 -57.12315129 301.88644799 -65 311 C-66.16225028 307.51324915 -65.76030545 306.00862199 -65.0625 302.4375 C-64.13120442 296.79270842 -63.77291145 291.33112514 -63.75 285.625 C-63.73658569 284.50242798 -63.73658569 284.50242798 -63.72290039 283.35717773 C-63.74806682 278.54717731 -64.48190757 274.56632566 -66 270 C-78.58069598 265.97069875 -89.92018876 270.56729973 -101.40258789 275.74975586 C-106.6991839 278.10027203 -106.6991839 278.10027203 -110 277 C-109.27296875 276.14341797 -109.27296875 276.14341797 -108.53125 275.26953125 C-99.85385681 264.77322295 -89.26941744 251.2791242 -89 237 C-90.42350669 231.83978825 -92.44034112 228.88667916 -96.86328125 226.05859375 C-104.59051709 222.23029226 -113.5611615 221.25183468 -122 220 C-120.61702141 216.42229452 -119.04383021 213.25154807 -117 210 C-120.85959164 208.54041904 -124.71482802 207.09896239 -128.61328125 205.74609375 C-154.3627451 196.6372549 -154.3627451 196.6372549 -161 190 C-164.15656734 189.93973141 -167.29729592 189.9797424 -170.453125 190.0390625 C-173.59340215 190.07571943 -175.99496836 190.00167721 -179 189 C-179 187.68 -179 186.36 -179 185 C-179.66 185 -180.32 185 -181 185 C-180.814375 184.4225 -180.62875 183.845 -180.4375 183.25 C-179.95976454 180.79307475 -180.24270636 179.35602466 -181 177 C-180.34 176.67 -179.68 176.34 -179 176 C-179 175.34 -179 174.68 -179 174 C-175.7 174.33 -172.4 174.66 -169 175 C-168.34 172.69 -167.68 170.38 -167 168 C-165.68 168.33 -164.36 168.66 -163 169 C-162.67 171.64 -162.34 174.28 -162 177 C-145.25512702 179.87054965 -128.96960439 180.36371432 -112 180 C-119.15312475 174.96478156 -126.37677227 172.93730736 -135 172 C-135 171.34 -135 170.68 -135 170 C-133.82244141 169.43732422 -133.82244141 169.43732422 -132.62109375 168.86328125 C-120.77374794 163.67754852 -120.77374794 163.67754852 -113 154 C-112.81753203 149.71200278 -113.75688703 148.27205499 -116.625 145.0625 C-122.35707341 140.55026866 -129.3579308 137.90057001 -136 135 C-137.81262261 134.18777357 -139.62514791 133.37532986 -141.4375 132.5625 C-142.613125 132.046875 -143.78875 131.53125 -145 131 C-145 130.67 -145 130.34 -145 130 C-144.175 130.02320313 -143.35 130.04640625 -142.5 130.0703125 C-123.93698755 130.48414233 -123.93698755 130.48414233 -107 124 C-104.31091304 119.96636956 -104.31933191 116.74036706 -105 112 C-106.74348693 108.6330885 -106.74348693 108.6330885 -109 106 C-109.66 105.01 -110.32 104.02 -111 103 C-109.80503906 103.05220703 -109.80503906 103.05220703 -108.5859375 103.10546875 C-100.33729554 103.41375384 -100.33729554 103.41375384 -93 100 C-90.65958083 97.74028494 -90.019138 96.06251748 -89.0625 92.9375 C-88.89440388 82.34744453 -95.62122256 71.158021 -102 63 C-101.505 62.01 -101.505 62.01 -101 61 C-99.28103516 61.83144531 -99.28103516 61.83144531 -97.52734375 62.6796875 C-95.99753266 63.41174434 -94.46757702 64.14349916 -92.9375 64.875 C-92.18533203 65.23980469 -91.43316406 65.60460937 -90.65820312 65.98046875 C-83.473737 69.4016431 -77.01416889 71.65689909 -69 71 C-65.76386646 69.25746655 -65.17604685 68.52814056 -64 65 C-62.95697799 55.40419751 -67.55365503 45.78817967 -71 37 C-65.41680411 38.94532613 -60.58514068 42.1764316 -55.58984375 45.27929688 C-49.3807541 49.03271954 -43.35813425 52 -36 52 C-34.5448383 42.71842808 -35.60430295 34.19314502 -37 25 C-36.11441406 26.10988281 -36.11441406 26.10988281 -35.2109375 27.2421875 C-28.89503406 35.77011507 -28.89503406 35.77011507 -20 41 C-16.38406352 40.75485176 -13.42989787 40.14329929 -10 39 C-8.86399165 36.67662686 -8.86399165 36.67662686 -8 34 C-7.69320312 33.31164062 -7.38640625 32.62328125 -7.0703125 31.9140625 C-2.88853007 21.78792818 -1.6870381 10.75825821 0 0 Z " fill="#FEA23D" transform="translate(225,121)"/>
<path d="M0 0 C0.33 0 0.66 0 1 0 C1.15855469 1.30453125 1.31710938 2.6090625 1.48046875 3.953125 C3.37611914 21.25818532 3.37611914 21.25818532 12.3125 35.6875 C15.98429068 38.37961551 19.45992713 39.38581647 24 39 C30.67803105 36.9275076 35.95159042 33.36772665 39.265625 27.1875 C39.94169069 25.79868288 40.60303894 24.40261157 41.25 23 C41.75660156 21.95199219 41.75660156 21.95199219 42.2734375 20.8828125 C43.98778936 17.30562161 45.58113549 13.70642159 47 10 C49.70808881 12.70808881 49.46604566 14.5942589 49.875 18.375 C51.24201843 28.63815375 53.4843687 38.44491656 61 46 C64.83737109 48.66484103 68.83756827 48.17389544 73.31640625 47.6015625 C80.63465918 45.96108077 86.66532449 41.80710283 92.40625 37.13671875 C94 36 94 36 96 36 C96.38671875 37.22976562 96.7734375 38.45953125 97.171875 39.7265625 C97.69742847 41.3595322 98.22349751 42.99233603 98.75 44.625 C99.00265625 45.43324219 99.2553125 46.24148437 99.515625 47.07421875 C101.10073556 51.94843372 102.73026427 56.0156025 106 60 C112.42934509 61.35354633 116.63568904 59.09697626 122.17578125 55.8671875 C126.00227267 53.33736329 129.51844034 50.51704457 133.00390625 47.5390625 C135 46 135 46 137 46 C136.835 46.86625 136.67 47.7325 136.5 48.625 C135.18497469 58.30123101 134.52848986 68.50514867 140 77 C145.29771785 83.21483805 151.28746399 86.55259818 159 89 C158.855625 89.556875 158.71125 90.11375 158.5625 90.6875 C156.69052696 98.38338916 155.62239223 104.98890114 159.69140625 112.18359375 C165.02783775 119.59087927 174.78750922 122.05776528 183.37109375 123.609375 C184.67240234 123.80273438 184.67240234 123.80273438 186 124 C184.85703914 126.28592173 183.70293821 128.55699086 182.5 130.8125 C180.83562191 133.96394231 180.83562191 133.96394231 180.4375 137.5625 C178.54223228 142.09466194 176.4533126 142.87653709 172.07421875 144.80078125 C156.18241042 151 156.18241042 151 152 151 C151.79246094 150.1028125 151.58492188 149.205625 151.37109375 148.28125 C143.84368456 117.79366799 125.0156081 90.48452383 98 74 C86.48771977 67.27216421 74.89910949 61.49184793 62 58 C61.15308594 57.76925781 60.30617188 57.53851563 59.43359375 57.30078125 C57.29362039 56.77602257 55.17425047 56.35413928 53 56 C52.319375 55.88914063 51.63875 55.77828125 50.9375 55.6640625 C18.07952621 51.44272559 -14.51214811 59.91730231 -40.80078125 80.15625 C-43.57253471 82.3951214 -46.29028682 84.68663292 -49 87 C-49.76054687 87.61359375 -50.52109375 88.2271875 -51.3046875 88.859375 C-69.80864205 104.26836207 -85.62825129 130.85266506 -88 155 C-88.57748051 163.65682319 -88.82293828 172.32691064 -89 181 C-92.52038915 181.14636388 -96.03998695 181.23442023 -99.5625 181.3125 C-101.0484668 181.3753418 -101.0484668 181.3753418 -102.56445312 181.43945312 C-108.49389719 181.53794887 -111.95938425 181.07664674 -116.53100586 177.21362305 C-118.52871657 175.56319593 -120.51662108 174.91985879 -123 174.25 C-123.84304687 174.02183594 -124.68609375 173.79367187 -125.5546875 173.55859375 C-128.70136908 172.8397831 -131.79166312 172.34873227 -135 172 C-135 171.34 -135 170.68 -135 170 C-133.82244141 169.43732422 -133.82244141 169.43732422 -132.62109375 168.86328125 C-120.77374794 163.67754852 -120.77374794 163.67754852 -113 154 C-112.81753203 149.71200278 -113.75688703 148.27205499 -116.625 145.0625 C-122.35707341 140.55026866 -129.3579308 137.90057001 -136 135 C-137.81262261 134.18777357 -139.62514791 133.37532986 -141.4375 132.5625 C-142.613125 132.046875 -143.78875 131.53125 -145 131 C-145 130.67 -145 130.34 -145 130 C-144.175 130.02320313 -143.35 130.04640625 -142.5 130.0703125 C-123.93698755 130.48414233 -123.93698755 130.48414233 -107 124 C-104.31091304 119.96636956 -104.31933191 116.74036706 -105 112 C-106.74348693 108.6330885 -106.74348693 108.6330885 -109 106 C-109.66 105.01 -110.32 104.02 -111 103 C-110.20335937 103.03480469 -109.40671875 103.06960937 -108.5859375 103.10546875 C-100.33729554 103.41375384 -100.33729554 103.41375384 -93 100 C-90.65958083 97.74028494 -90.019138 96.06251748 -89.0625 92.9375 C-88.89440388 82.34744453 -95.62122256 71.158021 -102 63 C-101.505 62.01 -101.505 62.01 -101 61 C-99.85402344 61.55429688 -98.70804688 62.10859375 -97.52734375 62.6796875 C-95.99753266 63.41174434 -94.46757702 64.14349916 -92.9375 64.875 C-92.18533203 65.23980469 -91.43316406 65.60460937 -90.65820312 65.98046875 C-83.473737 69.4016431 -77.01416889 71.65689909 -69 71 C-65.76386646 69.25746655 -65.17604685 68.52814056 -64 65 C-62.95697799 55.40419751 -67.55365503 45.78817967 -71 37 C-65.41680411 38.94532613 -60.58514068 42.1764316 -55.58984375 45.27929688 C-49.3807541 49.03271954 -43.35813425 52 -36 52 C-34.5448383 42.71842808 -35.60430295 34.19314502 -37 25 C-36.11441406 26.10988281 -36.11441406 26.10988281 -35.2109375 27.2421875 C-28.89503406 35.77011507 -28.89503406 35.77011507 -20 41 C-16.38406352 40.75485176 -13.42989787 40.14329929 -10 39 C-8.86399165 36.67662686 -8.86399165 36.67662686 -8 34 C-7.69320312 33.31164062 -7.38640625 32.62328125 -7.0703125 31.9140625 C-2.88853007 21.78792818 -1.6870381 10.75825821 0 0 Z " fill="#EF8D18" transform="translate(225,121)"/>
<path d="M0 0 C2.93879484 1.35236577 5.29232911 2.89942659 7.75 5 C8.36359375 5.515625 8.9771875 6.03125 9.609375 6.5625 C11 8 11 8 11 10 C10.443125 10.02578125 9.88625 10.0515625 9.3125 10.078125 C0.31400984 10.7469317 -6.87576048 14.30354618 -13 21 C-15.90407033 24.94719903 -17.34630372 28.50103535 -17.0625 33.4375 C-15.8514375 40.59265496 -11.69347318 46.61119746 -7 52 C-8.216875 52.391875 -9.43375 52.78375 -10.6875 53.1875 C-17.71752197 55.86088864 -21.69584376 61.45498553 -25 68 C-27.30162689 74.90488068 -24.65301666 81.51223951 -22 88 C-20.51543532 90.56096438 -18.94604985 92.92593844 -17.171875 95.29296875 C-16 97 -16 97 -16 99 C-16.71800781 98.7834375 -17.43601562 98.566875 -18.17578125 98.34375 C-25.1215817 96.47539023 -31.63615673 95.65244144 -38.8125 95.5625 C-39.59987549 95.54058594 -40.38725098 95.51867187 -41.19848633 95.49609375 C-48.415778 95.52038673 -53.64835491 97.70061369 -58.8125 102.75 C-60.6514637 105.48217464 -61.48083158 107.21505191 -62.4375 110.25 C-63.125 112.3203125 -63.125 112.3203125 -64 114 C-66.9375 115.125 -66.9375 115.125 -70 116 C-76.07424791 123.55176767 -75.50738735 131.73738692 -75 141 C-74.49366723 145.36767054 -73.81591585 149.68001696 -73 154 C-73.66 154 -74.32 154 -75 154 C-75.32871094 153.24976563 -75.65742188 152.49953125 -75.99609375 151.7265625 C-80.6083076 141.80217822 -86.60348058 132.42814716 -97 128 C-103.98219887 126.18980029 -109.95156552 127.50454157 -116.3125 130.625 C-119.28033076 133.24773416 -120.57443426 135.51877302 -122.140625 139.09765625 C-123 141 -123 141 -125 144 C-125.58265625 143.71125 -126.1653125 143.4225 -126.765625 143.125 C-133.50476417 140.07331434 -139.62637903 138.69994031 -147 140 C-153.49862257 142.74084976 -157.09530818 146.68545257 -160 153 C-163.2873027 151.90423243 -163.62510784 151.41029968 -165.5625 148.75 C-170.02035389 143.37174344 -175.76489021 140.5019998 -182.625 139.4375 C-189.7620302 140.62700503 -194.62737989 143.81252607 -199.19921875 149.3828125 C-203.98504215 156.33834759 -208.02666151 164.10631456 -211 172 C-211.33 172 -211.66 172 -212 172 C-212.01458252 171.2251123 -212.02916504 170.45022461 -212.04418945 169.65185547 C-211.77012022 146.04437472 -211.77012022 146.04437472 -219 124 C-222.82585554 121.44942964 -224.44263092 121.48545833 -229 122 C-240.57256685 126.42291052 -249.12315129 136.88644799 -257 146 C-258.16225028 142.51324915 -257.76030545 141.00862199 -257.0625 137.4375 C-256.13120442 131.79270842 -255.77291145 126.33112514 -255.75 120.625 C-255.73658569 119.50242798 -255.73658569 119.50242798 -255.72290039 118.35717773 C-255.74806682 113.54717731 -256.48190757 109.56632566 -258 105 C-270.58069598 100.97069875 -281.92018876 105.56729973 -293.40258789 110.74975586 C-298.6991839 113.10027203 -298.6991839 113.10027203 -302 112 C-301.5153125 111.42894531 -301.030625 110.85789062 -300.53125 110.26953125 C-291.85385681 99.77322295 -281.26941744 86.2791242 -281 72 C-282.42350669 66.83978825 -284.44034112 63.88667916 -288.86328125 61.05859375 C-296.59051709 57.23029226 -305.5611615 56.25183468 -314 55 C-312.45657029 50.91894938 -310.50065501 47.58427218 -308 44 C-300.46327684 44.90960452 -300.46327684 44.90960452 -297.4375 45.5 C-292.51402025 46.21614251 -287.59284581 46.36699123 -282.625 46.5625 C-281.60277344 46.60568359 -280.58054687 46.64886719 -279.52734375 46.69335938 C-277.01834712 46.79887792 -274.50926057 46.90099213 -272 47 C-271.53851563 47.98097656 -271.07703125 48.96195312 -270.6015625 49.97265625 C-263.34058532 65.11908871 -254.73620216 77.98601791 -243 90 C-242.27296875 90.78890625 -241.5459375 91.5778125 -240.796875 92.390625 C-219.69905679 114.73868429 -189.19200173 126.49120525 -158.88989258 127.45556641 C-127.26965866 127.89430107 -98.77051641 115.0260009 -75.96923828 93.3737793 C-69.01372301 86.55663635 -63.25616188 79.18439853 -58 71 C-56.93652344 69.35257813 -56.93652344 69.35257813 -55.8515625 67.671875 C-46.76853971 52.70750795 -41.79318974 36.19081321 -39 19 C-38.195625 18.92265625 -38.195625 18.92265625 -37.375 18.84375 C-23.3928362 16.82001577 -11.12027811 8.22595915 0 0 Z " fill="#EF8D18" transform="translate(417,286)"/>
<path d="M0 0 C2.8125 2.3125 2.8125 2.3125 4.09765625 4.27734375 C6.17556725 7.34156984 7.93355317 9.83118614 11.67480469 10.78955078 C14.72045696 11.23013001 17.76435994 11.45224692 20.83276367 11.66992188 C32.44816837 12.53375011 42.05257395 16.39861943 49.8125 25.3125 C54.30768301 30.94369393 54.42417035 36.94077586 54.19140625 43.96875 C53.47602382 50.2818156 51.21738842 54.24779088 46.625 58.5625 C36.11892238 66.82368924 22.79638689 68.72200519 9.8125 67.3125 C6.0451544 66.53238848 2.43212587 65.35718729 -1.19921875 64.08984375 C-4.41629941 63.25298225 -6.06741126 63.23368966 -9.1875 64.3125 C-10.89753622 65.55171185 -10.89753622 65.55171185 -12.375 67.125 C-20.26691022 74.10824679 -28.93137236 75.20865711 -39.1328125 74.75 C-47.20868032 74.08103718 -52.171205 70.2570711 -58 64.9375 C-63.84805886 59.88538038 -70.19627075 57.93035742 -77.57543945 55.87158203 C-84.95872828 53.73773118 -91.12501082 50.49975996 -95.6875 44.125 C-98.51964985 38.46070029 -98.00946596 31.87509975 -96.125 26 C-91.49410014 19.57649374 -86.02281003 15.77542181 -78.1875 14.3125 C-72.66411029 13.90279802 -67.60055822 14.18258979 -62.1875 15.3125 C-56.16100522 15.79850764 -52.00998582 15.26517674 -47.1875 11.3125 C-46.01176976 10.02671282 -44.86712905 8.71201644 -43.75 7.375 C-32.5807563 -5.97845136 -14.98205398 -7.93167564 0 0 Z " fill="#85A6E2" transform="translate(413.1875,85.6875)"/>
<path d="M0 0 C4.85780117 2.07650159 9.24056965 2.24599056 14.4375 2.375 C23.21470825 2.65053401 30.87971006 3.92368005 37.77734375 9.8359375 C43.35596688 15.79103213 45.01434441 21.34528111 44.80859375 29.41796875 C44.11668419 36.50180473 40.97476068 42.3128864 35.5625 46.9375 C26.88229672 52.24435414 19.66564983 53.53580228 9.5625 52.9375 C7.55505385 52.29360218 5.55304876 51.63187747 3.5625 50.9375 C-0.01539788 51.24071168 -3.03570764 51.80356921 -6.4375 52.9375 C-8.0176079 53.05628434 -9.60298135 53.11269784 -11.1875 53.125 C-12.00734375 53.13917969 -12.8271875 53.15335938 -13.671875 53.16796875 C-16.4375 52.9375 -16.4375 52.9375 -19.5234375 51.98046875 C-25.60944941 50.11782531 -32.1419574 50.22398105 -38.45703125 49.90234375 C-46.34637855 49.37506077 -53.24951278 48.12548722 -59 42.375 C-61.06454908 37.43803481 -61.5401416 33.19739843 -60.4375 27.9375 C-57.1972821 22.12416789 -52.75841667 18.90631011 -46.4375 16.9375 C-45.46941406 16.76605469 -44.50132812 16.59460938 -43.50390625 16.41796875 C-37.4405105 15.47006007 -37.4405105 15.47006007 -32.73046875 11.921875 C-31.91555863 10.35931719 -31.15106065 8.76933898 -30.44140625 7.15625 C-28.2619014 2.33928986 -24.09417619 -0.79095064 -19.4375 -3.0625 C-12.52525915 -5.10475298 -6.29908362 -2.97065217 0 0 Z " fill="#85A7E2" transform="translate(239.4375,58.0625)"/>
<path d="M0 0 C2.91387197 0.2913872 3.82565583 0.79452294 5.75 3.0625 C6.1625 3.701875 6.575 4.34125 7 5 C8.1446875 3.7625 8.1446875 3.7625 9.3125 2.5 C12 0 12 0 15 0 C15.495 0.99 15.495 0.99 16 2 C16.99 2.33 17.98 2.66 19 3 C18.67 4.32 18.34 5.64 18 7 C18.99 7 19.98 7 21 7 C21 9.31 21 11.62 21 14 C20.01 14.5775 19.02 15.155 18 15.75 C17.35675781 16.12898438 16.71351563 16.50796875 16.05078125 16.8984375 C14 18 14 18 12.10546875 18.6640625 C6.18204732 20.85970955 3.40846811 25.19200362 -0.00708008 30.22875977 C-14.10349947 50.99583001 -34.78060404 69.98123254 -59 78 C-64.69485059 78.93928908 -69.13018259 78.81592032 -74.4375 76.5 C-79.34617308 71.71105065 -82.76459385 66.44502201 -83.1328125 59.4921875 C-83.13023437 58.62851562 -83.12765625 57.76484375 -83.125 56.875 C-83.12757813 56.00617188 -83.13015625 55.13734375 -83.1328125 54.2421875 C-83 52 -83 52 -82 50 C-79.8125 49.03515625 -79.8125 49.03515625 -77 48.0625 C-76.0925 47.74410156 -75.185 47.42570312 -74.25 47.09765625 C-72.48440375 46.50134309 -70.71787602 45.90764717 -68.94677734 45.32788086 C-44.09859382 37.1690593 -21.17373792 25.33738708 0 10 C-0.08378906 9.36191406 -0.16757812 8.72382813 -0.25390625 8.06640625 C-0.40666016 6.82697266 -0.40666016 6.82697266 -0.5625 5.5625 C-0.71912109 4.32693359 -0.71912109 4.32693359 -0.87890625 3.06640625 C-0.93884766 2.04353516 -0.93884766 2.04353516 -1 1 C-0.67 0.67 -0.34 0.34 0 0 Z " fill="#FEB872" transform="translate(445,227)"/>
<path d="M0 0 C1.32 0.33 2.64 0.66 4 1 C4.33 3.64 4.66 6.28 5 9 C19.96259643 11.47658707 34.51924991 12.45166569 49.68017578 12.33618164 C53.02530634 12.31231948 56.36964789 12.31568731 59.71484375 12.32226562 C69.68266347 12.30816335 79.39921629 12.21623702 89.23046875 10.42651367 C92.24909262 9.96163921 94.95246894 9.74312911 98 10 C102.76515209 14.76515209 104.15030231 18.20752776 104.25 24.8125 C104.19164818 29.65570094 103.93710793 32.98595249 101 37 C92.13232034 45.48212837 83.23888306 44.49495817 71.64453125 44.30859375 C51.72499791 43.62072908 20.65000675 36.65000675 6 22 C2.84343266 21.93973141 -0.29729592 21.9797424 -3.453125 22.0390625 C-6.59340215 22.07571943 -8.99496836 22.00167721 -12 21 C-12 19.68 -12 18.36 -12 17 C-12.66 17 -13.32 17 -14 17 C-13.814375 16.4225 -13.62875 15.845 -13.4375 15.25 C-12.95976454 12.79307475 -13.24270636 11.35602466 -14 9 C-13.34 8.67 -12.68 8.34 -12 8 C-12 7.34 -12 6.68 -12 6 C-8.7 6.33 -5.4 6.66 -2 7 C-1.34 4.69 -0.68 2.38 0 0 Z " fill="#FEB872" transform="translate(58,289)"/>
<path d="M0 0 C2.01638023 1.08655065 4.01846834 2.19661836 6.02050781 3.30932617 C9.55237213 5.24837166 13.06079537 6.44938551 16.95410156 7.52416992 C23.46357299 9.37134335 27.87321499 11.40675393 31.82910156 17.14916992 C33.69875958 22.75814397 33.5386107 26.60150906 31.51660156 32.02416992 C28.47325425 36.6314596 24.09460862 38.82393123 18.89160156 40.33666992 C13.32899971 40.86327097 7.68659882 41.07676535 2.25097656 39.63745117 C-0.95316612 39.22897603 -2.01476704 40.22262249 -4.54589844 42.14916992 C-11.25916513 46.90808101 -16.95091566 48.12530874 -25.10839844 47.33666992 C-32.30018323 45.83740534 -38.16957319 42.65469843 -43.04589844 37.14916992 C-44.6843003 32.81222381 -44.98755712 28.89860355 -44.10839844 24.33666992 C-42.00398046 20.45604595 -39.21129863 17.43957011 -36.10839844 14.33666992 C-35.67285854 12.9317025 -35.28221358 11.51253101 -34.92089844 10.08666992 C-33.30060248 4.97903646 -30.62145263 2.1458159 -26.10839844 -0.66333008 C-17.71353627 -4.75386563 -8.17162266 -4.09270306 0 0 Z " fill="#85A7E2" transform="translate(121.1083984375,117.663330078125)"/>
<path d="M0 0 C2.77114353 1.29320032 4.47965802 2.30621069 6.3125 4.75 C7.65551058 9.14530734 7.36518027 12.83598788 6 17.1875 C2.68890514 21.84372714 -1.56539763 23.50314237 -7.0625 24.625 C-11.47399597 23.68638384 -14.24740714 21.54979189 -17 18 C-18.13072653 15.23356229 -18.40836654 12.95917782 -18 10 C-13.96279461 1.92558921 -8.77495177 -1.78473595 0 0 Z " fill="#EF8D19" transform="translate(223,339)"/>
<path d="M0 0 C6.0589852 2.59670794 9.73737154 6.5521852 13.3125 12 C14.21505885 14.62562573 13.7319024 16.36515136 13 19 C10 20 10 20 7.5 19.125 C4.16548932 18.053193 1.83093767 17.90005042 -1.625 17.8125 C-6.51022427 17.44079815 -6.51022427 17.44079815 -8.5625 15.59375 C-10.72931061 11.96115575 -11.5895376 8.20723962 -12 4 C-16.59506182 7.55015735 -19.76454254 10.47710509 -22 16 C-24.9375 15.625 -24.9375 15.625 -28 15 C-28.33 14.34 -28.66 13.68 -29 13 C-27.02 13 -25.04 13 -23 13 C-22.67 12.01 -22.34 11.02 -22 10 C-23.32 9.34 -24.64 8.68 -26 8 C-25.67 7.34 -25.34 6.68 -25 6 C-23.02 6.66 -21.04 7.32 -19 8 C-19.57584432 5.61435923 -20.22227595 3.33317216 -21 1 C-20.13375 1.391875 -19.2675 1.78375 -18.375 2.1875 C-12.26050982 3.65950689 -6.96451897 -1.26091968 0 0 Z " fill="#423971" transform="translate(197,238)"/>
<path d="M0 0 C3.4758872 0.49655531 4.38178072 1.72187519 6.625 4.375 C9.21527596 10.5124076 10.76904476 17.73687982 9.625 24.375 C8.1875 27.4375 8.1875 27.4375 5.625 29.375 C2.47061474 30.07533141 -0.21870415 30.05838149 -3.375 29.375 C-5.9375 27.625 -5.9375 27.625 -7.375 24.375 C-8.33655483 16.7831892 -7.43007221 9.41007455 -4.375 2.375 C-2.375 0.375 -2.375 0.375 0 0 Z " fill="#FFB871" transform="translate(260.375,235.625)"/>
<path d="M0 0 C0.86625 0.350625 1.7325 0.70125 2.625 1.0625 C5.53410048 2.21082914 7.04269563 1.8791986 10 1 C10.66 0.67 11.32 0.34 12 0 C11.67 1.32 11.34 2.64 11 4 C10.34 4 9.68 4 9 4 C9.99 5.485 9.99 5.485 11 7 C12.98 6.67 14.96 6.34 17 6 C16.505 6.5775 16.01 7.155 15.5 7.75 C13.63019987 10.10400629 13.63019987 10.10400629 14 14 C15.65 13.67 17.3 13.34 19 13 C18.01 14.485 18.01 14.485 17 16 C16.34 16 15.68 16 15 16 C14.34 17.32 13.68 18.64 13 20 C10.23723823 19.47731534 7.6739124 18.89130413 5 18 C3.18796159 17.92530529 1.37534149 17.86415491 -0.4375 17.8125 C-5.62936904 17.35298187 -5.62936904 17.35298187 -8.625 14.5 C-10.27435574 10.30163993 -10.80081914 6.48156938 -11 2 C-7.15511769 -0.12015392 -4.41415166 -0.30976503 0 0 Z " fill="#463B71" transform="translate(326,236)"/>
<path d="M0 0 C0 0.99 0 1.98 0 3 C-1.32 3.33 -2.64 3.66 -4 4 C-1.54673732 9.92871814 4.03699585 12.61054391 9.640625 15.23828125 C15.74646161 17.75191159 21.09718365 19.13317014 27.73828125 19.09765625 C29.33833008 19.09282227 29.33833008 19.09282227 30.97070312 19.08789062 C32.07349609 19.07951172 33.17628906 19.07113281 34.3125 19.0625 C35.99569336 19.05573242 35.99569336 19.05573242 37.71289062 19.04882812 C40.4753151 19.03707313 43.23762998 19.02064077 46 19 C45 21 45 21 41.9375 22.125 C28.4992084 25.1407746 13.71765144 23.38012301 1.91015625 16.265625 C-4.48623853 12.02752294 -4.48623853 12.02752294 -6 9 C-9.11785113 9.64644661 -9.11785113 9.64644661 -10 12 C-10.99 11.67 -11.98 11.34 -13 11 C-12.52591957 6.73327616 -10.11692878 4.7544952 -7 2 C-4.27617044 0.31763469 -3.26115629 0 0 0 Z " fill="#4E3F6E" transform="translate(233,272)"/>
<path d="M0 0 C4.86243942 0.83835162 6.42278031 1.86239187 9.625 5.625 C9.85052686 9.91001031 9.36713014 11.79556043 6.5 15 C3.15922786 16.88826251 0.42657771 17.32683704 -3.375 17.625 C-6.30571531 14.56686229 -7.13475483 11.71076945 -7.49609375 7.59765625 C-7.375 5.625 -7.375 5.625 -5.875 2.625 C-3.375 0.625 -3.375 0.625 0 0 Z " fill="#EF8D19" transform="translate(355.375,331.375)"/>
<path d="M0 0 C3.52671383 1.01115571 5.19622933 2.65134468 7.234375 5.640625 C7.41274702 9.20806534 6.28185331 10.57588185 4.171875 13.453125 C0.1155758 16.47377334 -1.79389787 16.28213818 -6.765625 15.640625 C-8.484375 14.421875 -8.484375 14.421875 -9.765625 12.640625 C-10.1640625 10.265625 -10.1640625 10.265625 -10.140625 7.640625 C-10.14835938 6.774375 -10.15609375 5.908125 -10.1640625 5.015625 C-9.765625 2.640625 -9.765625 2.640625 -8.515625 0.828125 C-5.64445706 -1.12016753 -3.30535579 -0.49688355 0 0 Z " fill="#EF8D18" transform="translate(226.765625,186.359375)"/>
<path d="M0 0 C2.64378819 2.90816701 3.19453821 5.37108906 3.3125 9.1875 C3 13 3 13 1 15 C-3.52617472 15.67813768 -7.64799376 15.80476562 -11.625 13.4375 C-13.55866253 10.0096437 -13.62199068 7.87016423 -13 4 C-8.70527055 -0.29472945 -5.91050642 -1.68871612 0 0 Z " fill="#EF8D18" transform="translate(195,365)"/>
<path d="M0 0 C0.10957031 0.58007812 0.21914063 1.16015625 0.33203125 1.7578125 C1.3143365 6.59746277 2.54821911 10.65366116 5 15 C3.43883181 15.33951619 1.87598662 15.67132544 0.3125 16 C-0.55761719 16.185625 -1.42773438 16.37125 -2.32421875 16.5625 C-4.93712964 16.98972047 -7.35813038 17.07616201 -10 17 C-10.90417041 14.00724882 -11.24763066 12.54208603 -9.92578125 9.6484375 C-9.39339844 8.89820313 -8.86101562 8.14796875 -8.3125 7.375 C-7.79300781 6.61960938 -7.27351563 5.86421875 -6.73828125 5.0859375 C-2.5 0 -2.5 0 0 0 Z " fill="#FEFAF6" transform="translate(315,238)"/>
<path d="M0 0 C3.90961248 0.63644854 5.33981002 2.33026326 7.6875 5.4375 C7.75 8.0625 7.75 8.0625 6.6875 10.4375 C4.5293116 12.67276655 3.18901023 13.3518763 0.125 13.875 C-2.3125 13.4375 -2.3125 13.4375 -4.1875 11.875 C-5.78529963 8.41310081 -5.19001077 6.08254476 -4.3125 2.4375 C-2.3125 0.4375 -2.3125 0.4375 0 0 Z " fill="#EF8E1A" transform="translate(202.3125,206.5625)"/>
<path d="M0 0 C1.8125 1.125 1.8125 1.125 3 3 C3.54955021 6.68983715 3.45269677 8.34610467 1.3125 11.4375 C-1 13 -1 13 -3.5 13 C-6.54192065 11.78323174 -8.07779972 10.66150809 -10 8 C-10 4.78705708 -9.48073631 3.49790547 -7.25 1.1875 C-4.54260511 -0.24140286 -3.02025413 -0.46465448 0 0 Z " fill="#EF8E1A" transform="translate(185,330)"/>
<path d="M0 0 C3.47552338 0.34755234 4.83993243 0.67588358 7.125 3.3125 C7.625 6.3125 7.625 6.3125 7.125 9.3125 C4.88444941 11.89775068 3.4479668 12.26636189 0.0625 12.75 C-2.875 12.3125 -2.875 12.3125 -4.8125 10.6875 C-6.23989363 7.49685542 -5.81343266 5.63310787 -4.875 2.3125 C-2.875 0.3125 -2.875 0.3125 0 0 Z " fill="#EF8D19" transform="translate(355.875,306.6875)"/>
<path d="M0 0 C0.64690922 1.6037331 1.29248764 3.20800306 1.9375 4.8125 C2.29714844 5.70582031 2.65679687 6.59914062 3.02734375 7.51953125 C3.73613486 9.3270909 4.3860247 11.15807409 5 13 C3.43883181 13.33951619 1.87598662 13.67132544 0.3125 14 C-0.99267578 14.2784375 -0.99267578 14.2784375 -2.32421875 14.5625 C-4.93712964 14.98972047 -7.35813038 15.07616201 -10 15 C-9.87186721 8.84962603 -7.78588027 6.00868247 -3.69140625 1.50390625 C-2 0 -2 0 0 0 Z " fill="#FAF9F9" transform="translate(185,242)"/>
<path d="M0 0 C1.670625 0.061875 1.670625 0.061875 3.375 0.125 C4.89991998 3.17483996 4.61062548 5.7673369 4.375 9.125 C3.1875 11.0625 3.1875 11.0625 1.375 12.125 C-1.125 12.5625 -1.125 12.5625 -3.625 12.125 C-5.5 10.5 -5.5 10.5 -6.625 8.125 C-6.30382282 2.77204698 -5.79014421 0.19966015 0 0 Z " fill="#EF8D19" transform="translate(335.625,350.875)"/>
<path d="M0 0 C2.3125 1.6875 2.3125 1.6875 4 4 C4.375 6.625 4.375 6.625 4 9 C2 11 2 11 -1.4375 11.3125 C-5 11 -5 11 -6.9375 9.8125 C-8.38718434 7.33950907 -8.42317323 5.82115488 -8 3 C-5.85994067 -0.26640634 -3.76400062 -0.64263425 0 0 Z " fill="#EF8D19" transform="translate(228,379)"/>
<path d="M0 0 C0.66 0.33 1.32 0.66 2 1 C2.3125 3.75 2.3125 3.75 2 7 C-0.1875 9.4375 -0.1875 9.4375 -3 11 C-5.6875 10.9375 -5.6875 10.9375 -8 10 C-10.1387261 6.79191085 -10.47730962 5.72301503 -10 2 C-6.33134759 -0.44576827 -4.32799657 -0.23607254 0 0 Z " fill="#EF8D19" transform="translate(272,193)"/>
<path d="M0 0 C0.66 0.66 1.32 1.32 2 2 C1.8125 4.5 1.8125 4.5 1 7 C-2 9 -2 9 -4.5625 8.9375 C-7 8 -7 8 -8.3125 5.4375 C-8.539375 4.633125 -8.76625 3.82875 -9 3 C-6.40257043 -0.46323942 -4.16948329 -0.44356205 0 0 Z " fill="#EF8E1A" transform="translate(251,188)"/>
<path d="M0 0 C0.91007813 0.00902344 1.82015625 0.01804688 2.7578125 0.02734375 C3.45648438 0.03894531 4.15515625 0.05054688 4.875 0.0625 C4.875 1.0525 4.875 2.0425 4.875 3.0625 C3.14755984 3.71293719 1.4179631 4.35764844 -0.3125 5 C-1.27542969 5.35964844 -2.23835937 5.71929687 -3.23046875 6.08984375 C-5.8618278 6.97406562 -8.39394908 7.58818586 -11.125 8.0625 C-11.455 7.4025 -11.785 6.7425 -12.125 6.0625 C-6.14123377 -0.07873377 -6.14123377 -0.07873377 0 0 Z " fill="#4B3D6F" transform="translate(187.125,221.9375)"/>
<path d="M0 0 C3.98066095 1.57724302 5.60667274 2.41000911 8 6 C7.67 6.33 7.34 6.66 7 7 C1.26703644 6.39011026 -4.35875569 5.16911099 -10 4 C-9.67 3.01 -9.34 2.02 -9 1 C-5.92805092 -0.53597454 -3.39755707 -0.2265038 0 0 Z " fill="#4C3E6E" transform="translate(327,216)"/>
<path d="M0 0 C0.9075 0.33 1.815 0.66 2.75 1 C6.07045807 2.19605723 6.07045807 2.19605723 10 2 C9.67 3.32 9.34 4.64 9 6 C9 5.01 9 4.02 9 3 C4.40493818 6.55015735 1.23545746 9.47710509 -1 15 C-3.9375 14.625 -3.9375 14.625 -7 14 C-7.33 13.34 -7.66 12.68 -8 12 C-6.02 12 -4.04 12 -2 12 C-1.67 11.01 -1.34 10.02 -1 9 C-2.32 8.34 -3.64 7.68 -5 7 C-4.67 6.34 -4.34 5.68 -4 5 C-2.02 5.66 -0.04 6.32 2 7 C1.42415568 4.61435923 0.77772405 2.33317216 0 0 Z " fill="#705973" transform="translate(176,239)"/>
<path d="M0 0 C1.1446875 0.3403125 1.1446875 0.3403125 2.3125 0.6875 C1.5625 6.4375 1.5625 6.4375 -0.6875 8.6875 C-2.0075 8.6875 -3.3275 8.6875 -4.6875 8.6875 C-6.01591008 3.25309513 -6.01591008 3.25309513 -4.5625 0.75 C-2.6875 -0.3125 -2.6875 -0.3125 0 0 Z " fill="#FEA13B" transform="translate(217.6875,345.3125)"/>
<path d="M0 0 C0.99 0 1.98 0 3 0 C2.67 1.98 2.34 3.96 2 6 C-0.3125 6.6875 -0.3125 6.6875 -3 7 C-4.8125 5.5625 -4.8125 5.5625 -6 4 C-4.02 4 -2.04 4 0 4 C0 2.68 0 1.36 0 0 Z " fill="#544570" transform="translate(174,247)"/>
</svg>
