<?xml version="1.0" encoding="UTF-8"?>
<svg version="1.1" xmlns="http://www.w3.org/2000/svg" width="1920" height="1920">
<path d="M0 0 C633.6 0 1267.2 0 1920 0 C1920 633.6 1920 1267.2 1920 1920 C1286.4 1920 652.8 1920 0 1920 C0 1286.4 0 652.8 0 0 Z " fill="#FEFEFE" transform="translate(0,0)"/>
<path d="M0 0 C1.18937164 0.00515121 1.18937164 0.00515121 2.402771 0.01040649 C21.07362012 0.10510246 38.8258585 0.86232351 56.71484375 6.63720703 C58.4151431 7.18267628 60.12877965 7.6861691 61.84375 8.18359375 C89.45036723 16.53236912 114.32039522 34.95208858 134.5625 54.9375 C135.33400391 55.69498535 135.33400391 55.69498535 136.12109375 56.46777344 C139.625 60.00331217 139.625 60.00331217 139.625 62.25 C140.6665625 61.54875 141.708125 60.8475 142.78125 60.125 C151.7170959 54.18004729 160.68124928 48.83529496 170.40527344 44.29199219 C172.80400372 43.16597142 175.1862457 42.00827979 177.5703125 40.8515625 C210.5663757 25.09498118 248.81321164 14.23218719 285.6171875 14.046875 C287.02016838 14.03628555 287.02016838 14.03628555 288.45149231 14.02548218 C335.40427946 13.75198542 380.7131257 19.95748891 423.625 40.25 C424.45547852 40.63913574 425.28595703 41.02827148 426.14160156 41.42919922 C446.38383482 50.99390913 464.92619621 62.55732975 482.625 76.25 C483.64980469 77.04019531 484.67460938 77.83039063 485.73046875 78.64453125 C496.27900814 87.04285138 505.96494164 96.54462769 515.5625 106 C516.07675537 106.50120361 516.59101074 107.00240723 517.12084961 107.51879883 C518.32880199 108.72381573 519.48288866 109.98240529 520.625 111.25 C520.625 111.91 520.625 112.57 520.625 113.25 C521.285 113.25 521.945 113.25 522.625 113.25 C524.14484883 114.92535459 525.59206453 116.66705622 527 118.4375 C528.15628906 119.88189453 528.15628906 119.88189453 529.3359375 121.35546875 C530.09132813 122.31066406 530.84671875 123.26585937 531.625 124.25 C532.95777854 125.91711035 534.29092391 127.58392781 535.625 129.25 C536.9797862 128.96122471 538.33379302 128.66879283 539.6875 128.375 C540.44160156 128.21257812 541.19570312 128.05015625 541.97265625 127.8828125 C543.9602541 127.40859917 545.9298334 126.85776864 547.88671875 126.26953125 C552.03435034 125.138359 556.12791651 124.43952396 560.375 123.8125 C567.62518312 122.74824947 567.62518312 122.74824947 574.82421875 121.390625 C598.07734901 116.69431393 623.76976381 118.06756792 647.05517578 121.84863281 C649.52151267 122.23383686 651.9856658 122.54642071 654.46484375 122.8359375 C672.18885556 125.03230604 689.57557749 130.99136239 705.44335938 139.13769531 C708.07906324 140.48150315 710.73561969 141.78068827 713.390625 143.0859375 C748.03393953 160.35280899 778.25480856 185.50624247 800.625 217.25 C801.46452845 218.39736619 802.30435981 219.54451082 803.14453125 220.69140625 C825.10147622 251.40380971 838.56329836 288.69804492 841.625 326.25 C841.70967529 327.104729 841.79435059 327.95945801 841.8815918 328.84008789 C842.67241496 337.20734841 842.82139788 345.53715959 842.8125 353.9375 C842.8132251 354.63977722 842.8139502 355.34205444 842.81469727 356.06561279 C842.81362308 365.49404715 842.48351783 374.73501478 841.0625 384.0703125 C840.39398103 388.65600909 840.39398103 388.65600909 840.625 393.25 C842.8696398 395.41374045 842.8696398 395.41374045 845.9375 397.0625 C874.58160822 414.79296792 900.40615714 444.31189654 911.5859375 476.36328125 C912.59704486 479.17233516 913.80546433 481.76199977 915.125 484.4375 C932.08063309 521.06806583 930.96831997 569.92542529 917.484375 607.421875 C916.2146411 610.37266506 914.93630808 613.3173735 913.625 616.25 C913.109375 617.40371094 912.59375 618.55742188 912.0625 619.74609375 C910.30988374 623.61012145 908.47813926 627.43334933 906.625 631.25 C906.13821777 632.26586182 906.13821777 632.26586182 905.64160156 633.30224609 C897.57185127 649.97686565 886.445694 663.96729901 873.625 677.25 C872.82835937 678.09820313 872.03171875 678.94640625 871.2109375 679.8203125 C856.02890141 695.59578322 837.42702412 707.16179306 817.625 716.25 C816.94856445 716.56066406 816.27212891 716.87132812 815.57519531 717.19140625 C785.45322456 730.79395894 753.72958303 732.86646952 721.15088555 732.79880863 C716.57187862 732.79377382 711.99294943 732.81204696 707.41397285 732.8271904 C699.45493468 732.85039921 691.49598721 732.85921198 683.53691673 732.85804749 C671.83126138 732.85637096 660.12572354 732.87734743 648.42009998 732.90294814 C627.82845208 732.94727374 607.23682746 732.96967302 586.64513833 732.98227143 C568.83252272 732.99324942 551.0199358 733.01196952 533.20733643 733.03845215 C532.03077978 733.04019281 530.85422313 733.04193348 529.64201325 733.04372689 C524.88464325 733.05078209 520.12727331 733.05788294 515.36990348 733.06504844 C472.86573902 733.12902975 430.36158086 733.17343935 387.85738158 733.20573992 C351.41639439 733.23355393 314.97552914 733.28594818 278.53460652 733.35883832 C277.70689226 733.36049297 276.87917801 733.36214762 276.0263815 733.36385241 C274.37183615 733.36716228 272.71729082 733.37047877 271.0627455 733.37380204 C250.47139221 733.415034 229.88002373 733.44401586 209.28864384 733.46818924 C207.18614553 733.47067458 205.08364723 733.47316726 202.98114894 733.47567013 C201.59606845 733.47731892 200.21098794 733.47895808 198.82590743 733.48058745 C188.63661804 733.49272141 178.44735808 733.51188253 168.25808716 733.5345459 C156.90463979 733.55958752 145.55124081 733.57400305 134.19776469 733.5741396 C128.57515825 733.57443765 122.95266653 733.57913818 117.33008766 733.59754944 C74.57736851 733.73134809 74.57736851 733.73134809 56.625 730.25 C55.38814013 730.01179409 55.38814013 730.01179409 54.12629318 729.76877594 C48.91637946 728.74514436 43.76870389 727.56552529 38.625 726.25 C37.94872559 726.08306641 37.27245117 725.91613281 36.57568359 725.74414062 C10.70525053 719.25633565 -14.2756904 706.46772126 -35.375 690.25 C-36.27476562 689.56164063 -37.17453125 688.87328125 -38.1015625 688.1640625 C-54.03395405 675.68451122 -68.35603643 661.52350413 -80.375 645.25 C-81.0244458 644.38375 -81.0244458 644.38375 -81.68701172 643.5 C-87.96718649 635.10457054 -93.33821426 626.43665921 -98.375 617.25 C-98.88546875 616.38503906 -99.3959375 615.52007813 -99.921875 614.62890625 C-117.29888301 584.68626611 -124.59902042 548.17858972 -124.625 513.9375 C-124.62567474 513.13664978 -124.62634949 512.33579956 -124.62704468 511.51068115 C-124.61014893 498.86097846 -123.96515692 486.66615277 -121.375 474.25 C-121.18212402 473.30930664 -120.98924805 472.36861328 -120.79052734 471.39941406 C-115.84394052 447.67907535 -107.95155585 424.09001617 -95.375 403.25 C-94.9826416 402.59692871 -94.5902832 401.94385742 -94.18603516 401.27099609 C-82.05274721 381.32464167 -67.32959322 364.61717497 -50.62646484 348.43798828 C-48.52318769 346.39400977 -46.44347117 344.32913034 -44.375 342.25 C-45.54933594 342.13785156 -46.72367188 342.02570313 -47.93359375 341.91015625 C-60.08045911 340.37545012 -71.88706283 333.28867036 -82.375 327.25 C-83.03145508 326.87359375 -83.68791016 326.4971875 -84.36425781 326.109375 C-94.63523169 320.14654546 -103.69523248 313.34826337 -112.375 305.25 C-112.93316406 304.73034668 -113.49132812 304.21069336 -114.06640625 303.67529297 C-126.52968546 291.93855642 -136.45139218 278.81224426 -145.375 264.25 C-146.00277344 263.26515625 -146.63054687 262.2803125 -147.27734375 261.265625 C-152.19037228 253.31017398 -155.33792894 245.04446344 -158.375 236.25 C-158.67148437 235.404375 -158.96796875 234.55875 -159.2734375 233.6875 C-160.00417929 231.55027669 -160.69233283 229.40302724 -161.375 227.25 C-161.85066406 225.83074219 -161.85066406 225.83074219 -162.3359375 224.3828125 C-168.02184465 206.89757924 -169.69774224 189.55138333 -169.375 171.25 C-169.36774902 170.47333984 -169.36049805 169.69667969 -169.35302734 168.89648438 C-169.12039924 149.67115133 -165.07046057 131.24135049 -158.375 113.25 C-158.14796387 112.61771484 -157.92092773 111.98542969 -157.68701172 111.33398438 C-144.1307751 74.06560798 -114.75553399 41.4849243 -80.375 22.25 C-79.28058594 21.62480469 -78.18617188 20.99960937 -77.05859375 20.35546875 C-64.65974952 13.40856292 -51.66947315 8.30039024 -38 4.4375 C-36.96782349 4.14516479 -36.96782349 4.14516479 -35.91479492 3.84692383 C-23.96013291 0.63722934 -12.31132785 -0.08683513 0 0 Z " fill="#C1E5FE" transform="translate(643.375,655.75)"/>
<path d="M0 0 C1.18937164 0.00515121 1.18937164 0.00515121 2.402771 0.01040649 C21.07362012 0.10510246 38.8258585 0.86232351 56.71484375 6.63720703 C58.4151431 7.18267628 60.12877965 7.6861691 61.84375 8.18359375 C89.45036723 16.53236912 114.32039522 34.95208858 134.5625 54.9375 C135.33400391 55.69498535 135.33400391 55.69498535 136.12109375 56.46777344 C139.625 60.00331217 139.625 60.00331217 139.625 62.25 C140.6665625 61.54875 141.708125 60.8475 142.78125 60.125 C151.7170959 54.18004729 160.68124928 48.83529496 170.40527344 44.29199219 C172.80400372 43.16597142 175.1862457 42.00827979 177.5703125 40.8515625 C210.5663757 25.09498118 248.81321164 14.23218719 285.6171875 14.046875 C287.02016838 14.03628555 287.02016838 14.03628555 288.45149231 14.02548218 C335.40427946 13.75198542 380.7131257 19.95748891 423.625 40.25 C424.45547852 40.63913574 425.28595703 41.02827148 426.14160156 41.42919922 C446.38383482 50.99390913 464.92619621 62.55732975 482.625 76.25 C483.64980469 77.04019531 484.67460938 77.83039063 485.73046875 78.64453125 C496.27900814 87.04285138 505.96494164 96.54462769 515.5625 106 C516.07675537 106.50120361 516.59101074 107.00240723 517.12084961 107.51879883 C518.32880199 108.72381573 519.48288866 109.98240529 520.625 111.25 C520.625 111.91 520.625 112.57 520.625 113.25 C521.285 113.25 521.945 113.25 522.625 113.25 C524.14484883 114.92535459 525.59206453 116.66705622 527 118.4375 C528.15628906 119.88189453 528.15628906 119.88189453 529.3359375 121.35546875 C530.09132813 122.31066406 530.84671875 123.26585937 531.625 124.25 C532.95777854 125.91711035 534.29092391 127.58392781 535.625 129.25 C536.9797862 128.96122471 538.33379302 128.66879283 539.6875 128.375 C540.44160156 128.21257812 541.19570312 128.05015625 541.97265625 127.8828125 C543.9602541 127.40859917 545.9298334 126.85776864 547.88671875 126.26953125 C552.03435034 125.138359 556.12791651 124.43952396 560.375 123.8125 C567.62518312 122.74824947 567.62518312 122.74824947 574.82421875 121.390625 C598.07734901 116.69431393 623.76976381 118.06756792 647.05517578 121.84863281 C649.52151267 122.23383686 651.9856658 122.54642071 654.46484375 122.8359375 C672.18885556 125.03230604 689.57557749 130.99136239 705.44335938 139.13769531 C708.07906324 140.48150315 710.73561969 141.78068827 713.390625 143.0859375 C748.03393953 160.35280899 778.25480856 185.50624247 800.625 217.25 C801.46452845 218.39736619 802.30435981 219.54451082 803.14453125 220.69140625 C825.10147622 251.40380971 838.56329836 288.69804492 841.625 326.25 C841.70967529 327.104729 841.79435059 327.95945801 841.8815918 328.84008789 C842.67241496 337.20734841 842.82139788 345.53715959 842.8125 353.9375 C842.8132251 354.63977722 842.8139502 355.34205444 842.81469727 356.06561279 C842.81362308 365.49404715 842.48351783 374.73501478 841.0625 384.0703125 C840.39398103 388.65600909 840.39398103 388.65600909 840.625 393.25 C842.8696398 395.41374045 842.8696398 395.41374045 845.9375 397.0625 C874.58160822 414.79296792 900.40615714 444.31189654 911.5859375 476.36328125 C912.59704486 479.17233516 913.80546433 481.76199977 915.125 484.4375 C932.08063309 521.06806583 930.96831997 569.92542529 917.484375 607.421875 C916.2146411 610.37266506 914.93630808 613.3173735 913.625 616.25 C913.109375 617.40371094 912.59375 618.55742188 912.0625 619.74609375 C910.30988374 623.61012145 908.47813926 627.43334933 906.625 631.25 C906.13821777 632.26586182 906.13821777 632.26586182 905.64160156 633.30224609 C897.57185127 649.97686565 886.445694 663.96729901 873.625 677.25 C872.82835937 678.09820313 872.03171875 678.94640625 871.2109375 679.8203125 C856.02890141 695.59578322 837.42702412 707.16179306 817.625 716.25 C816.94856445 716.56066406 816.27212891 716.87132812 815.57519531 717.19140625 C785.45322456 730.79395894 753.72958303 732.86646952 721.15088555 732.79880863 C716.57187862 732.79377382 711.99294943 732.81204696 707.41397285 732.8271904 C699.45493468 732.85039921 691.49598721 732.85921198 683.53691673 732.85804749 C671.83126138 732.85637096 660.12572354 732.87734743 648.42009998 732.90294814 C627.82845208 732.94727374 607.23682746 732.96967302 586.64513833 732.98227143 C568.83252272 732.99324942 551.0199358 733.01196952 533.20733643 733.03845215 C532.03077978 733.04019281 530.85422313 733.04193348 529.64201325 733.04372689 C524.88464325 733.05078209 520.12727331 733.05788294 515.36990348 733.06504844 C472.86573902 733.12902975 430.36158086 733.17343935 387.85738158 733.20573992 C351.41639439 733.23355393 314.97552914 733.28594818 278.53460652 733.35883832 C277.70689226 733.36049297 276.87917801 733.36214762 276.0263815 733.36385241 C274.37183615 733.36716228 272.71729082 733.37047877 271.0627455 733.37380204 C250.47139221 733.415034 229.88002373 733.44401586 209.28864384 733.46818924 C207.18614553 733.47067458 205.08364723 733.47316726 202.98114894 733.47567013 C201.59606845 733.47731892 200.21098794 733.47895808 198.82590743 733.48058745 C188.63661804 733.49272141 178.44735808 733.51188253 168.25808716 733.5345459 C156.90463979 733.55958752 145.55124081 733.57400305 134.19776469 733.5741396 C128.57515825 733.57443765 122.95266653 733.57913818 117.33008766 733.59754944 C74.57736851 733.73134809 74.57736851 733.73134809 56.625 730.25 C55.38814013 730.01179409 55.38814013 730.01179409 54.12629318 729.76877594 C48.91637946 728.74514436 43.76870389 727.56552529 38.625 726.25 C37.94872559 726.08306641 37.27245117 725.91613281 36.57568359 725.74414062 C10.70525053 719.25633565 -14.2756904 706.46772126 -35.375 690.25 C-36.27476562 689.56164063 -37.17453125 688.87328125 -38.1015625 688.1640625 C-54.03395405 675.68451122 -68.35603643 661.52350413 -80.375 645.25 C-81.0244458 644.38375 -81.0244458 644.38375 -81.68701172 643.5 C-87.96718649 635.10457054 -93.33821426 626.43665921 -98.375 617.25 C-98.88546875 616.38503906 -99.3959375 615.52007813 -99.921875 614.62890625 C-117.29888301 584.68626611 -124.59902042 548.17858972 -124.625 513.9375 C-124.62567474 513.13664978 -124.62634949 512.33579956 -124.62704468 511.51068115 C-124.61014893 498.86097846 -123.96515692 486.66615277 -121.375 474.25 C-121.18212402 473.30930664 -120.98924805 472.36861328 -120.79052734 471.39941406 C-115.84394052 447.67907535 -107.95155585 424.09001617 -95.375 403.25 C-94.9826416 402.59692871 -94.5902832 401.94385742 -94.18603516 401.27099609 C-82.05274721 381.32464167 -67.32959322 364.61717497 -50.62646484 348.43798828 C-48.52318769 346.39400977 -46.44347117 344.32913034 -44.375 342.25 C-45.54933594 342.13785156 -46.72367188 342.02570313 -47.93359375 341.91015625 C-60.08045911 340.37545012 -71.88706283 333.28867036 -82.375 327.25 C-83.03145508 326.87359375 -83.68791016 326.4971875 -84.36425781 326.109375 C-94.63523169 320.14654546 -103.69523248 313.34826337 -112.375 305.25 C-112.93316406 304.73034668 -113.49132812 304.21069336 -114.06640625 303.67529297 C-126.52968546 291.93855642 -136.45139218 278.81224426 -145.375 264.25 C-146.00277344 263.26515625 -146.63054687 262.2803125 -147.27734375 261.265625 C-152.19037228 253.31017398 -155.33792894 245.04446344 -158.375 236.25 C-158.67148437 235.404375 -158.96796875 234.55875 -159.2734375 233.6875 C-160.00417929 231.55027669 -160.69233283 229.40302724 -161.375 227.25 C-161.85066406 225.83074219 -161.85066406 225.83074219 -162.3359375 224.3828125 C-168.02184465 206.89757924 -169.69774224 189.55138333 -169.375 171.25 C-169.36774902 170.47333984 -169.36049805 169.69667969 -169.35302734 168.89648438 C-169.12039924 149.67115133 -165.07046057 131.24135049 -158.375 113.25 C-158.14796387 112.61771484 -157.92092773 111.98542969 -157.68701172 111.33398438 C-144.1307751 74.06560798 -114.75553399 41.4849243 -80.375 22.25 C-79.28058594 21.62480469 -78.18617188 20.99960937 -77.05859375 20.35546875 C-64.65974952 13.40856292 -51.66947315 8.30039024 -38 4.4375 C-36.96782349 4.14516479 -36.96782349 4.14516479 -35.91479492 3.84692383 C-23.96013291 0.63722934 -12.31132785 -0.08683513 0 0 Z M247.03930664 47.7487793 C244.50248521 48.27543461 241.96080267 48.77279271 239.41796875 49.26953125 C221.7447708 52.80554538 204.61548073 59.39366833 188.47851562 67.34082031 C186.56045395 68.28166089 184.63258646 69.19998045 182.703125 70.1171875 C149.00190611 86.3179565 117.39353389 111.54037908 94.625 141.25 C93.52091797 142.61125 93.52091797 142.61125 92.39453125 144 C70.38297199 171.57728795 54.89046181 203.14543592 45.24951172 237.05908203 C44.81122635 238.59667895 44.35270529 240.12858285 43.87939453 241.65576172 C41.46513008 249.78060273 40.46891268 257.98742652 39.5 266.375 C39.33017149 267.7904541 39.1596022 269.20581952 38.98828125 270.62109375 C38.52152357 274.49598997 38.07241813 278.37282139 37.625 282.25 C37.51389893 283.17385498 37.40279785 284.09770996 37.28833008 285.04956055 C36.82365447 288.9888449 36.50662259 292.84520369 36.5625 296.8125 C36.58333333 298.29166667 36.60416667 299.77083333 36.625 301.25 C37.21273193 301.12955322 37.80046387 301.00910645 38.40600586 300.88500977 C44.98327118 299.55154561 51.57626289 298.3397567 58.1875 297.1875 C59.16396484 297.01412109 60.14042969 296.84074219 61.14648438 296.66210938 C72.26038976 294.72182221 83.03098644 294.00938999 94.3125 294 C95.40856064 293.99898788 95.40856064 293.99898788 96.52676392 293.99795532 C109.10566829 294.0163237 121.2493832 294.87261615 133.625 297.25 C134.5005957 297.41097168 135.37619141 297.57194336 136.27832031 297.73779297 C158.66295131 301.95465885 181.96635032 309.60954733 201.625 321.25 C202.35589844 321.66636719 203.08679688 322.08273437 203.83984375 322.51171875 C215.21818935 329.11911079 225.96515904 336.7287166 236.1875 345 C236.82961426 345.51828369 237.47172852 346.03656738 238.13330078 346.57055664 C242.06752902 349.8069754 245.6644709 353.23108364 249.15991211 356.93847656 C250.5456317 358.47232664 250.5456317 358.47232664 252.625 358.25 C252.89441406 358.85070312 253.16382813 359.45140625 253.44140625 360.0703125 C254.63303044 362.26478874 255.72567082 363.46332079 257.5625 365.125 C265.9512852 373.32313099 272.67525772 383.10683975 279.1875 392.8125 C279.70014404 393.57409424 280.21278809 394.33568848 280.7409668 395.12036133 C284.80566914 401.27454371 287.84103035 406.59351263 286.625 414.25 C284.40363437 418.61045847 282.18932971 421.38277421 277.625 423.25 C271.35250251 423.94694417 268.69839511 423.30212726 263.625 419.25 C262.06219763 416.95788986 260.73798914 414.80110425 259.4375 412.375 C254.90102869 404.36720193 249.48002955 397.32743457 243.625 390.25 C242.79484375 389.23035156 241.9646875 388.21070313 241.109375 387.16015625 C238.73045837 384.37353221 236.23936211 381.81448557 233.625 379.25 C232.57892578 378.13431641 232.57892578 378.13431641 231.51171875 376.99609375 C224.27943453 369.40412221 216.12956158 363.33559067 207.625 357.25 C206.85067627 356.68514893 206.07635254 356.12029785 205.27856445 355.53833008 C199.35887972 351.28448628 193.28367569 347.66197561 186.8125 344.3125 C185.81839111 343.79743896 184.82428223 343.28237793 183.80004883 342.75170898 C136.29005415 318.63345085 84.28221711 315.13220362 33.625 331.25 C32.86106934 331.49089355 32.09713867 331.73178711 31.31005859 331.97998047 C-13.87176889 346.58795803 -53.01088934 382.88601013 -74.72265625 424.6328125 C-76.5827522 428.04200927 -76.5827522 428.04200927 -76.375 431.25 C-77.035 431.25 -77.695 431.25 -78.375 431.25 C-97.87626092 482.77256213 -101.82652068 529.27968977 -83.28417969 581.66845703 C-82.54414076 583.76973835 -81.83399271 585.88152828 -81.1328125 587.99609375 C-75.58762791 603.88284522 -65.63602195 618.06635868 -55.375 631.25 C-54.67246094 632.17683594 -53.96992187 633.10367188 -53.24609375 634.05859375 C-24.48613638 670.78620534 19.64099188 696.46765971 65.77514648 702.91210938 C66.71559814 703.02361328 67.6560498 703.13511719 68.625 703.25 C69.30159647 703.33164901 69.97819294 703.41329801 70.67529234 703.49742123 C77.28275644 704.23309747 83.79992324 704.38949118 90.44405556 704.37304783 C92.17843926 704.3747786 92.17843926 704.3747786 93.94786102 704.37654433 C97.14406979 704.37872801 100.34023878 704.37645419 103.53644437 704.37226619 C107.01855797 704.36881653 110.50066847 704.37120572 113.98278272 704.37284368 C120.08105348 704.37491327 126.17931446 704.37328073 132.27758408 704.36920547 C141.3454431 704.36316261 150.41329598 704.3628704 159.48115666 704.36374746 C174.73581839 704.36506049 189.99047579 704.36172325 205.24513626 704.35573006 C220.34781541 704.34981179 235.45049276 704.34596386 250.55317307 704.34487724 C251.49242879 704.3448085 252.43168451 704.34473976 253.39940252 704.34466894 C258.16946338 704.34433061 262.93952425 704.34402922 267.70958512 704.34374207 C301.49047334 704.341642 335.2713592 704.3349056 369.05224609 704.32543945 C401.86865222 704.31625419 434.68505769 704.30917098 467.50146484 704.30493164 C469.01894681 704.30473435 469.01894681 704.30473435 470.56708498 704.30453308 C480.72659393 704.30321455 490.88610288 704.30193874 501.04561184 704.30069422 C521.74145732 704.29815805 542.43730277 704.29533679 563.13314819 704.29234314 C564.08469678 704.29220585 565.03624537 704.29206856 566.01662877 704.29192711 C629.55275349 704.28272741 693.08887691 704.26688232 756.625 704.25 C756.625 703.59 756.625 702.93 756.625 702.25 C757.635625 702.29125 758.64625 702.3325 759.6875 702.375 C793.42049734 702.13869179 826.73947694 682.83051932 850.625 660.25 C851.36234375 659.56550781 852.0996875 658.88101563 852.859375 658.17578125 C881.56261893 630.64305968 897.39556279 590.9727548 898.71484375 551.56640625 C898.75112573 548.78881908 898.70788258 546.02656659 898.625 543.25 C898.59664062 542.22777344 898.56828125 541.20554687 898.5390625 540.15234375 C896.89058615 506.59407511 883.33004009 473.14264662 861.0703125 448.01953125 C859.50597845 446.2477855 857.98372022 444.43739501 856.51953125 442.58203125 C854.84066449 440.51546742 853.20821683 438.84418447 851.1875 437.125 C850.50558594 436.54363281 849.82367187 435.96226562 849.12109375 435.36328125 C847.88552734 434.31720703 847.88552734 434.31720703 846.625 433.25 C845.51109283 432.28587894 844.39785865 431.32098 843.28515625 430.35546875 C842.10709506 429.34076929 840.92870907 428.32644679 839.75 427.3125 C839.17838135 426.81540527 838.6067627 426.31831055 838.01782227 425.80615234 C835.21687127 423.1147766 835.21687127 423.1147766 831.625 422.25 C831.356875 422.97960938 831.08875 423.70921875 830.8125 424.4609375 C818.07495256 458.39979746 800.61079597 488.52595221 775.23583984 514.58789062 C773.77123145 516.09911432 772.33141449 517.63426604 770.89453125 519.171875 C763.22477754 527.20132971 754.58968385 533.73963049 745.625 540.25 C745.04363281 540.68135254 744.46226562 541.11270508 743.86328125 541.55712891 C723.74998431 556.38531071 700.27276581 566.62220214 676.625 574.25 C675.635 574.58 674.645 574.91 673.625 575.25 C669.56502696 575.51193374 666.68940333 575.63705576 662.875 574.25 C659.19564032 570.97945807 656.84590967 567.11130617 656.4609375 562.125 C656.84562372 557.28894464 658.19016768 554.55704838 661.625 551.25 C665.18252412 549.51940633 668.8845783 548.27627086 672.625 547 C728.61377738 526.93038469 770.26598848 490.39690538 796.375 436.875 C815.52091427 396.29183461 818.02945668 351.98070283 809.99414062 308.28125 C809.65967464 306.44080225 809.35172597 304.59558427 809.046875 302.75 C805.96712865 286.00881472 798.65205387 270.15792262 790.625 255.25 C790.26792969 254.57598145 789.91085937 253.90196289 789.54296875 253.20751953 C781.62889131 238.32667692 771.50736491 222.39671694 758.625 211.25 C757.965 211.25 757.305 211.25 756.625 211.25 C756.52832031 210.65445313 756.43164062 210.05890625 756.33203125 209.4453125 C755.47018091 206.76929101 754.47012291 205.90291702 752.3125 204.125 C751.22195313 203.21621094 751.22195313 203.21621094 750.109375 202.2890625 C748.87960937 201.27972656 748.87960937 201.27972656 747.625 200.25 C746.74328125 199.49460937 745.8615625 198.73921875 744.953125 197.9609375 C717.22696731 174.35623569 685.24608661 158.20367763 649.625 150.25 C648.81514648 150.06671143 648.00529297 149.88342285 647.17089844 149.69458008 C639.11997691 148.04289772 631.06429809 147.75678022 622.875 147.5625 C621.78735352 147.53455353 621.78735352 147.53455353 620.67773438 147.50604248 C585.96934602 146.62198791 585.96934602 146.62198791 552.625 155.25 C553.9369756 158.70357719 555.44929297 161.88070297 557.26953125 165.09375 C557.7792749 166.00398926 558.28901855 166.91422852 558.81420898 167.85205078 C559.61773804 169.28653564 559.61773804 169.28653564 560.4375 170.75 C564.36690134 177.85415328 567.94267285 184.75790144 570.6328125 192.42578125 C571.61064662 195.20914372 572.74619544 197.86454556 573.9375 200.5625 C586.72067069 231.27426857 593.72901466 264.11907658 594 297.375 C594.02102783 299.16345337 594.02102783 299.16345337 594.04248047 300.98803711 C593.9840293 311.40808216 593.9840293 311.40808216 590.625 316.25 C587.35465625 319.21374903 584.68044324 320.17181902 580.25 320.5 C575.20993493 320.15240931 572.92391876 318.63341226 569.51196289 314.99951172 C567.3306189 311.82105448 567.12815098 310.25560439 567.12109375 306.4453125 C567.10473877 305.31649658 567.08838379 304.18768066 567.0715332 303.0246582 C567.06706177 301.21807739 567.06706177 301.21807739 567.0625 299.375 C566.39104409 266.47366035 559.40867353 234.33268333 545.94921875 204.234375 C544.78795752 201.6172553 543.75292814 198.99281451 542.75 196.3125 C533.42802091 172.91243003 517.98545741 152.12787928 501.625 133.25 C501.08786377 132.62456299 500.55072754 131.99912598 499.99731445 131.35473633 C489.84141285 119.610234 478.88770063 108.83603526 466.40673828 99.58740234 C464.55703213 98.19898219 462.7444979 96.77061767 460.93359375 95.33203125 C451.22337422 87.70283848 440.94886522 81.51601026 430.11474609 75.61230469 C427.88228949 74.39078009 425.66797741 73.14268126 423.45703125 71.8828125 C414.82946 67.04725362 405.89638212 63.13077573 396.75 59.375 C395.62062012 58.9102124 394.49124023 58.4454248 393.32763672 57.96655273 C383.39100569 53.97450866 373.43704337 51.26954963 362.9375 49.25 C362.07302246 49.08193848 361.20854492 48.91387695 360.31787109 48.74072266 C358.56946642 48.40147996 356.82077332 48.06371997 355.07177734 47.72753906 C352.89382442 47.30246663 350.72205144 46.8561735 348.55078125 46.3984375 C315.0926151 39.58988982 280.34009988 40.77741742 247.03930664 47.7487793 Z " fill="#2B3541" transform="translate(643.375,655.75)"/>
<path d="M0 0 C0.82326573 0.00031196 1.64653147 0.00062392 2.49474465 0.00094534 C3.44529459 -0.00354925 4.39584453 -0.00804384 5.37519901 -0.01267462 C6.95561996 -0.00479358 6.95561996 -0.00479358 8.5679686 0.00324667 C9.68460292 0.00093898 10.80123724 -0.0013687 11.95170897 -0.00374632 C15.73822071 -0.00909041 19.52456641 -0.00002581 23.31106972 0.0088333 C26.03516622 0.00907439 28.75925774 0.00629752 31.48335277 0.00365496 C37.42911377 -0.00050197 43.37483483 0.00281109 49.3205912 0.01093138 C58.16178704 0.02297263 67.00295756 0.02360568 75.8441601 0.0218474 C90.71450688 0.01921589 105.58483592 0.02591649 120.45517754 0.03788222 C135.1848817 0.04970448 149.91457847 0.05741172 164.64428734 0.05958784 C165.55913874 0.05972532 166.47399013 0.0598628 167.4165643 0.06000445 C172.06237602 0.06068109 176.70818774 0.06128386 181.35399947 0.0618582 C214.28524106 0.06606228 247.21647298 0.07954608 280.14770912 0.09846342 C312.14575548 0.11682352 344.14379919 0.13099504 376.14184975 0.13947905 C377.1276636 0.1397421 378.11347745 0.14000515 379.12916444 0.14027618 C389.02884913 0.14291315 398.92853385 0.14546479 408.82821857 0.1479539 C428.99614745 0.15302672 449.16407615 0.15866922 469.33200478 0.16465605 C470.72302694 0.16506792 470.72302694 0.16506792 472.14215056 0.16548811 C534.09957384 0.1838985 596.05699176 0.21558995 658.01440834 0.24934233 C658.01440834 2.24934233 658.01440834 2.24934233 656.01440834 4.31184233 C655.55550209 4.75399077 655.09659584 5.1961392 654.62378334 5.65168608 C649.59874472 10.64013461 645.08684051 16.12398453 640.63940834 21.62434233 C636.75515884 26.41625151 632.6595284 30.96205141 628.48315834 35.49934233 C626.07062731 38.18671867 623.78184624 40.93899677 621.51440834 43.74934233 C617.67721803 48.50529652 613.62055733 53.00439034 609.48315834 57.49934233 C607.07062731 60.18671867 604.78184624 62.93899677 602.51440834 65.74934233 C599.46092156 69.53394567 596.30772533 73.1714177 593.01440834 76.74934233 C589.00033984 81.11487305 585.22503783 85.61433455 581.49878334 90.22590483 C578.54024875 93.8263856 575.5063182 97.35514055 572.45190834 100.87434233 C571.93394692 101.47150053 571.41598549 102.06865874 570.88232826 102.68391264 C569.86055799 103.85814057 568.83005647 105.02484037 567.79006275 106.182959 C565.97298306 108.24203738 565.97298306 108.24203738 564.33828249 110.54765898 C559.57005268 116.73567577 559.57005268 116.73567577 555.49960511 118.07971872 C552.54045962 118.39346819 549.69771425 118.42454923 546.72256111 118.35677279 C545.59900373 118.36715739 544.47544634 118.37754199 543.31784176 118.38824127 C539.54276352 118.41211596 535.77112197 118.37165774 531.99621987 118.33163298 C529.2669039 118.33054569 526.53768806 118.34305589 523.80840182 118.35493547 C517.86962986 118.37358059 511.93167011 118.35883957 505.99299263 118.3221916 C497.16259409 118.26785012 488.33270707 118.26517153 479.5021718 118.2730695 C464.64771237 118.2848924 449.79361335 118.25483089 434.93925881 118.20091284 C420.23124303 118.14766279 405.52337736 118.11302004 390.81526589 118.10323752 C389.44360745 118.10230953 389.44360745 118.10230953 388.04423874 118.1013628 C383.4002809 118.09831781 378.75632294 118.09560535 374.11236482 118.09302092 C341.21763132 118.07411628 308.32309389 118.01347762 275.42847084 117.92829741 C243.4714502 117.8456406 211.51448321 117.78188663 179.55737709 117.7437271 C178.5723524 117.74254336 177.58732771 117.74135962 176.57245378 117.74014002 C166.68044719 117.72827336 156.78844018 117.71679103 146.89643281 117.70559028 C126.74520336 117.68276425 106.59397742 117.65737298 86.44275307 117.63043059 C85.5162287 117.62919498 84.58970433 117.62795937 83.63510346 117.62668632 C21.76145683 117.54387778 -40.11208088 117.40127066 -101.98559166 117.24934233 C-101.03344199 115.96889361 -100.07978005 114.68956933 -99.12548424 113.41071928 C-98.5945768 112.69817488 -98.06366936 111.98563048 -97.51667381 111.25149382 C-95.68734462 108.85933337 -93.72343613 106.64163836 -91.67309166 104.43684233 C-88.49275925 100.95818728 -85.44827045 97.41520492 -82.48559166 93.74934233 C-78.87293336 89.28369526 -75.09665621 85.01649618 -71.22777916 80.77277983 C-68.94043262 78.19851874 -66.77010895 75.55644744 -64.61059166 72.87434233 C-60.93052157 68.32233926 -57.06036281 64.01681985 -53.07641197 59.73469389 C-49.25264489 55.60053005 -45.69717137 51.28436483 -42.16527916 46.89777983 C-40.00801767 44.27659114 -37.77248165 41.75779952 -35.48559166 39.24934233 C-32.37100497 35.83194861 -29.39372546 32.34411883 -26.48559166 28.74934233 C-22.88398495 24.29735626 -19.12041423 20.04218818 -15.26293541 15.81184233 C-11.99831184 12.13844086 -8.91537182 8.32617696 -5.83324791 4.49934233 C-2.38435076 0.29941684 -2.38435076 0.29941684 0 0 Z " fill="#2A3440" transform="translate(101.98559165745974,1802.7506576701999)"/>
<path d="M0 0 C1.16789063 0.48855469 2.33578125 0.97710938 3.5390625 1.48046875 C19.12154169 8.32198614 32.31490171 18.84643589 45 30 C45.79664063 30.69867187 46.59328125 31.39734375 47.4140625 32.1171875 C48.06117188 32.71789062 48.70828125 33.31859375 49.375 33.9375 C49.91898438 34.44152344 50.46296875 34.94554687 51.0234375 35.46484375 C52 37 52 37 51.77270508 38.87744141 C50.82837647 41.471436 49.64141569 42.63373408 47.61328125 44.49609375 C46.5759082 45.45805664 46.5759082 45.45805664 45.51757812 46.43945312 C44.78990234 47.09880859 44.06222656 47.75816406 43.3125 48.4375 C42.60416016 49.09298828 41.89582031 49.74847656 41.16601562 50.42382812 C38.06381923 53.27968206 34.93853305 56.08245241 31.67578125 58.75390625 C29.49032534 60.58841304 27.68910777 62.31910542 25.875 64.5 C23.24236514 67.59755933 20.52667434 70.58455714 17.73706055 73.53930664 C6.37040715 85.62947161 -2.68225682 98.80025884 -11.57128906 112.76953125 C-12.77664986 114.6513112 -13.99970926 116.51765136 -15.2421875 118.375 C-18.97906801 124.02041605 -21.76591414 129.60302123 -24 136 C-24.66 136 -25.32 136 -26 136 C-26.14695312 136.57105469 -26.29390625 137.14210938 -26.4453125 137.73046875 C-27.78723251 142.58143247 -29.41764925 147.03743096 -31.625 151.5625 C-34.70440338 158.04464412 -37.19020088 164.68892648 -39.625 171.4375 C-39.99705566 172.46109619 -40.36911133 173.48469238 -40.75244141 174.53930664 C-45.57382811 188.05782382 -48.9109756 201.47607402 -51.125 215.625 C-51.25384583 216.43173157 -51.38269165 217.23846313 -51.51544189 218.06964111 C-54.34199905 235.97701914 -55.40778437 253.89652447 -56 272 C-56.80824219 272.32613281 -57.61648438 272.65226562 -58.44921875 272.98828125 C-59.51785156 273.42527344 -60.58648438 273.86226562 -61.6875 274.3125 C-62.74324219 274.74175781 -63.79898438 275.17101562 -64.88671875 275.61328125 C-67.99960279 276.92432049 -67.99960279 276.92432049 -70.73999023 278.64526367 C-77.50169441 282.69848788 -88.74319177 279.70551714 -96 278 C-122.04139624 271.33701279 -145.00297239 256.72832849 -164 238 C-164.83917969 237.17371094 -165.67835938 236.34742188 -166.54296875 235.49609375 C-177.16937728 224.43043781 -185.80057221 211.01520805 -192 197 C-192.4846875 195.90429688 -192.969375 194.80859375 -193.46875 193.6796875 C-196.417921 186.59264903 -198.80651974 179.35366092 -201 172 C-201.21897949 171.26716797 -201.43795898 170.53433594 -201.66357422 169.77929688 C-207.9044042 147.71545563 -207.82926709 119.8514901 -201 98 C-200.68724121 96.97374512 -200.68724121 96.97374512 -200.36816406 95.92675781 C-199.02300677 91.57598271 -197.52446177 87.2914643 -196 83 C-195.5604374 81.50060313 -195.12264299 80.00068545 -194.6875 78.5 C-190.52078791 66.16190255 -182.81761984 55.26501348 -175 45 C-173.94425781 43.60587891 -173.94425781 43.60587891 -172.8671875 42.18359375 C-153.94294049 17.87892357 -125.60362172 0.17575561 -96 -8 C-95.32324219 -8.19609863 -94.64648438 -8.39219727 -93.94921875 -8.59423828 C-63.43754148 -17.12161061 -28.4213881 -13.29692437 0 0 Z " fill="#FDC100" transform="translate(708,696)"/>
<path d="M0 0 C4.69994029 1.71728588 7.20959499 3.86606666 10 8 C11.22689284 11.68067852 11.16347501 15.09065939 11.17700195 18.92456055 C11.18357315 19.73144821 11.19014435 20.53833588 11.19691467 21.36967468 C11.2166361 24.04202367 11.228309 26.71431643 11.23828125 29.38671875 C11.24235678 30.30071756 11.2464323 31.21471638 11.25063133 32.15641212 C11.27148926 36.99611815 11.28579099 41.83579586 11.29516602 46.67553711 C11.30621711 51.66444844 11.34060277 56.65291211 11.38033772 61.64166546 C11.40653786 65.48595485 11.41486097 69.33013824 11.41844749 73.17450905 C11.42330632 75.01283598 11.4349002 76.85115841 11.45348549 78.68939781 C11.47794487 81.2694434 11.47689955 83.84833974 11.4699707 86.4284668 C11.48278076 87.18045349 11.49559082 87.93244019 11.50878906 88.70721436 C11.45537622 94.1951801 10.03967629 98.4095594 7 103 C3.63184743 106.13316518 1.01087941 107.25739808 -3.5 107.5 C-7.99572998 107.26576869 -10.61237972 106.07249281 -14 103 C-17.68421305 97.62585559 -18.58535124 93.84748669 -18.51757812 87.40600586 C-18.5245874 86.57581436 -18.53159668 85.74562286 -18.53881836 84.89027405 C-18.55632558 82.16478349 -18.54480292 79.4403436 -18.53125 76.71484375 C-18.53394676 74.81107892 -18.53783071 72.90731543 -18.54284668 71.0035553 C-18.54873165 67.02168612 -18.54021014 63.04017683 -18.52148438 59.05834961 C-18.4986799 53.96165082 -18.51183374 48.86579396 -18.53577423 43.76912594 C-18.55024604 39.84080185 -18.54562014 35.91267655 -18.53526306 31.98434639 C-18.53260041 30.10532086 -18.53584927 28.22627711 -18.54518127 26.34727287 C-18.55537147 23.71923037 -18.53981268 21.0925416 -18.51757812 18.46459961 C-18.52567505 17.69300507 -18.53377197 16.92141052 -18.54211426 16.12643433 C-18.46096186 10.9335866 -17.27032628 8.00382668 -14 4 C-9.44787756 0.06862153 -5.81719888 -0.95402062 0 0 Z " fill="#2E3843" transform="translate(653,531)"/>
<path d="M0 0 C4.31381617 2.33982609 7.11433501 5.48135578 9 10 C9.63540787 14.76555899 9.68212567 17.60085817 6.74633789 21.47143555 C1.86640338 27.67664488 -3.85740125 33.14495099 -9.44140625 38.70703125 C-10.65425804 39.92123267 -11.866813 41.13573065 -13.0790863 42.35050964 C-15.6083282 44.88268539 -18.14111462 47.41124558 -20.67651367 49.93725586 C-23.9202394 53.1695514 -27.15485307 56.41079383 -30.38688755 59.65477467 C-32.88401639 62.15913791 -35.38589811 64.65870923 -37.88923454 67.15686607 C-39.08396993 68.35027125 -40.27723234 69.54515299 -41.46896553 70.74155617 C-43.13409677 72.41178267 -44.80553285 74.07543779 -46.47875977 75.73754883 C-47.20909172 76.47395348 -47.20909172 76.47395348 -47.95417786 77.22523499 C-51.80473912 81.02868841 -54.97089186 83.77864275 -60.4375 84.375 C-65.8083936 83.80964278 -69.36515604 82.09737885 -72.9375 78.0625 C-75.65755787 73.83526253 -75.61038847 69.9259194 -74.94921875 65.04296875 C-73.18070551 59.37353741 -69.22902111 55.98941652 -65 52 C-63.92987841 50.90854266 -62.86498432 49.81194158 -61.8046875 48.7109375 C-55.96652084 42.69347134 -55.96652084 42.69347134 -53 40 C-52.34 40 -51.68 40 -51 40 C-50.67 39.01 -50.34 38.02 -50 37 C-49.34 37 -48.68 37 -48 37 C-47.74927734 36.42475586 -47.49855469 35.84951172 -47.24023438 35.25683594 C-45.83271173 32.69558804 -44.21829975 30.95942608 -42.15625 28.890625 C-41.40472656 28.13652344 -40.65320313 27.38242187 -39.87890625 26.60546875 C-39.09386719 25.82816406 -38.30882812 25.05085937 -37.5 24.25 C-36.71496094 23.45722656 -35.92992187 22.66445313 -35.12109375 21.84765625 C-34.36957031 21.09871094 -33.61804688 20.34976563 -32.84375 19.578125 C-31.81024414 18.54800293 -31.81024414 18.54800293 -30.75585938 17.49707031 C-29 16 -29 16 -27 16 C-26.67 15.01 -26.34 14.02 -26 13 C-25.34 13 -24.68 13 -24 13 C-23.7628125 12.42636719 -23.525625 11.85273437 -23.28125 11.26171875 C-21.72581788 8.51600168 -19.88242639 6.87391764 -17.5 4.8125 C-16.7059375 4.11769531 -15.911875 3.42289063 -15.09375 2.70703125 C-10.56980779 -0.98133209 -5.63231643 -0.83010724 0 0 Z " fill="#2B3541" transform="translate(857,615)"/>
<path d="M0 0 C0.7977182 -0.00700928 1.5954364 -0.01401855 2.41732788 -0.02124023 C5.035823 -0.03874378 7.65322374 -0.0272241 10.27172852 -0.01367188 C12.10344142 -0.01636926 13.93515293 -0.02025374 15.76686096 -0.02526855 C19.59910768 -0.03115347 23.43098048 -0.02263421 27.26318359 -0.00390625 C32.16015921 0.0188666 37.056257 0.0057645 41.95320034 -0.01819611 C45.73406001 -0.03269517 49.51471382 -0.02802904 53.29557991 -0.01768494 C55.1003842 -0.01502815 56.90520754 -0.0182503 58.70998955 -0.02760315 C61.23945005 -0.03783505 63.76751747 -0.02217589 66.296875 0 C67.40140266 -0.01214539 67.40140266 -0.01214539 68.52824402 -0.02453613 C75.1215144 0.08181613 80.15119685 2.40397935 85.21313477 6.58007812 C87.55877958 11.17363255 87.55019619 15.47356144 86.71313477 20.51757812 C85.10895489 24.21902595 83.2579104 26.72430696 79.64193726 28.58117676 C75.83973023 29.7968244 72.22096462 29.82858537 68.27026367 29.83984375 C67.01319359 29.85473846 67.01319359 29.85473846 65.73072815 29.86993408 C62.96701742 29.89906918 60.20353613 29.91276158 57.43969727 29.92382812 C55.51305132 29.93533852 53.58640541 29.94685389 51.65975952 29.95837402 C47.62317847 29.97936219 43.58667673 29.99106874 39.55004883 29.99804688 C34.38596044 30.00902025 29.22292572 30.05709396 24.05916786 30.11399078 C20.08022016 30.15129536 16.10152524 30.16165732 12.12241745 30.16471863 C10.21904098 30.17075956 8.31566832 30.18677615 6.41246414 30.21308899 C3.74576489 30.24733107 1.0816268 30.24342577 -1.58520508 30.23046875 C-2.36569717 30.24889832 -3.14618927 30.26732788 -3.95033264 30.28631592 C-9.23869836 30.2061128 -11.98606384 28.76473163 -15.86622047 25.19564056 C-19.20256515 21.25475764 -19.73588327 17.79416529 -19.59545898 12.76367188 C-19.0983228 9.14527562 -17.71725994 7.19724408 -15.28686523 4.51757812 C-10.13243167 1.00562672 -6.26920985 -0.06874724 0 0 Z " fill="#2D3743" transform="translate(369.286865234375,815.482421875)"/>
<path d="M0 0 C4.81108706 1.73199134 8.71956847 4.32511536 11 9 C11.99034026 12.93660251 11.91096323 16.05120214 11 20 C9.38182068 22.30833435 9.38182068 22.30833435 7.22045898 24.57592773 C6.40189423 25.4418454 5.58332947 26.30776306 4.73995972 27.19992065 C3.83577301 28.12394684 2.9315863 29.04797302 2 30 C1.53620564 30.47669758 1.07241127 30.95339516 0.59456253 31.44453812 C-3.03868378 35.17398587 -6.71695792 38.85733622 -10.40234375 42.53515625 C-11.57310803 43.70659585 -12.74372398 44.87818371 -13.91419983 46.0499115 C-16.3455607 48.48273398 -18.77868926 50.9137702 -21.21313477 53.34350586 C-24.33590673 56.46053027 -27.45409846 59.58209238 -30.57102108 62.70496464 C-32.97720766 65.11475528 -35.38575889 67.52217107 -37.79504585 69.92886162 C-38.9468585 71.08000719 -40.09792878 72.23189606 -41.24824333 73.38453865 C-42.84660574 74.98543048 -44.44812019 76.58309962 -46.05053711 78.17993164 C-46.96048935 79.08908829 -47.87044159 79.99824493 -48.80796814 80.93495178 C-52.55473322 84.46466807 -55.47156629 84.34209005 -60.45703125 84.27734375 C-64.23091373 83.86575288 -66.24007187 82.55798217 -69 80 C-72.53718109 75.04794647 -72.85634493 69.88857413 -72 64 C-69.58254678 59.16509357 -65.96131508 55.6168529 -62 52 C-61.34 52 -60.68 52 -60 52 C-59.67 51.01 -59.34 50.02 -59 49 C-58.34 49 -57.68 49 -57 49 C-56.74927734 48.42475586 -56.49855469 47.84951172 -56.24023438 47.25683594 C-54.83271173 44.69558804 -53.21829975 42.95942608 -51.15625 40.890625 C-50.40472656 40.13652344 -49.65320313 39.38242187 -48.87890625 38.60546875 C-48.09386719 37.82816406 -47.30882812 37.05085937 -46.5 36.25 C-45.71496094 35.45722656 -44.92992187 34.66445313 -44.12109375 33.84765625 C-43.36957031 33.09871094 -42.61804688 32.34976563 -41.84375 31.578125 C-40.81024414 30.54800293 -40.81024414 30.54800293 -39.75585938 29.49707031 C-38 28 -38 28 -36 28 C-35.505 26.515 -35.505 26.515 -35 25 C-34.34 25 -33.68 25 -33 25 C-32.74041504 24.41661865 -32.48083008 23.8332373 -32.21337891 23.23217773 C-30.03025958 19.21602883 -26.59240845 16.26531041 -23.375 13.0625 C-22.68792969 12.35931641 -22.00085938 11.65613281 -21.29296875 10.93164062 C-9.03439834 -1.33842938 -9.03439834 -1.33842938 0 0 Z " fill="#2B3541" transform="translate(506,963)"/>
<path d="M0 0 C5.62886864 2.64887936 9.72066459 7.56085538 14 12 C14.886875 12.886875 15.77375 13.77375 16.6875 14.6875 C43 41 43 41 45.43359375 43.4375 C47.27501558 45.27611905 49.12110187 47.109157 50.97265625 48.9375 C52.00262733 49.95830996 53.03257501 50.97914353 54.0625 52 C54.57876953 52.50789062 55.09503906 53.01578125 55.62695312 53.5390625 C63.72370897 61.58424665 63.72370897 61.58424665 64.56640625 65.90234375 C64.55455798 75.10844897 64.55455798 75.10844897 61.75 78.625 C57.8144796 82.02385852 54.96653231 83.33148214 49.75 83.5625 C48.85796875 83.62566406 47.9659375 83.68882812 47.046875 83.75390625 C38.01645197 81.51945542 30.20050781 70.36424748 23.6953125 63.86328125 C22.52333577 62.69452393 21.35128656 61.52583929 20.1791687 60.35722351 C17.73844421 57.92244988 15.29975754 55.48565607 12.86230469 53.04760742 C9.74029017 49.92549067 6.61141391 46.81034779 3.48079109 43.69686604 C1.06503718 41.29222172 -1.34616716 38.88305523 -3.75610733 36.47258568 C-4.90833345 35.32153811 -6.06217804 34.17210827 -7.21767807 33.02434731 C-8.82812955 31.4236891 -10.4321269 29.81682452 -12.03466797 28.20825195 C-12.94763641 27.29670853 -13.86060486 26.3851651 -14.80123901 25.44599915 C-19.02903516 20.74281138 -19.54401108 16.97512749 -19.4609375 10.76953125 C-18.72897489 6.37155249 -16.37436891 3.7799205 -13 1 C-9.0447814 -0.9776093 -4.31109145 -0.423137 0 0 Z " fill="#2C3642" transform="translate(453,615)"/>
<path d="M0 0 C5.09134463 3.12372891 8.87440768 7.81423878 11.9375 12.875 C13.54330774 20.36876946 12.91047246 26.46562497 9.203125 33.23046875 C5.90078453 37.63106465 1.34324207 40.07837897 -3.5 42.5 C-20.92072883 43.81123765 -20.92072883 43.81123765 -26.9921875 38.9921875 C-32.74713067 33.29688105 -35.76859939 28.48350066 -35.9375 20.1875 C-35.8161259 13.02642812 -33.94626042 9.01843341 -29.0078125 3.9765625 C-21.55607271 -2.70297627 -9.18417473 -4.07784575 0 0 Z " fill="#F6F7F7" transform="translate(252.5,1850.5)"/>
<path d="M0 0 C5.48876234 2.89314202 10.02137202 7.37661605 12 13.3125 C12.020625 14.364375 12.04125 15.41625 12.0625 16.5 C12.12179687 17.34820313 12.18109375 18.19640625 12.2421875 19.0703125 C12.52862279 25.25394483 12.15953007 29.70815197 8.0625 34.5 C3.42727397 39.24506551 -0.68371985 42.22223828 -7.4609375 42.80078125 C-22.06409574 42.84521277 -22.06409574 42.84521277 -28.6875 37.125 C-33.36078969 31.6728287 -35.08770095 27.81161907 -35.125 20.6875 C-35.13917969 19.46417969 -35.15335938 18.24085937 -35.16796875 16.98046875 C-34.75156627 10.69208549 -32.60398114 7.63619919 -27.9375 3.5 C-19.74741904 -2.39685829 -9.61995661 -3.77155466 0 0 Z " fill="#F7F7F8" transform="translate(572.9375,1850.5)"/>
<path d="M0 0 C3.74839502 3.56097527 4.99205438 6.96027188 6 12 C6 14.97 6 17.94 6 21 C-4.56 21 -15.12 21 -26 21 C-22.86824314 26.77260299 -22.86824314 26.77260299 -20 28 C-18.21247508 28.14754174 -16.4183716 28.2211522 -14.625 28.25 C-13.19027344 28.28867188 -13.19027344 28.28867188 -11.7265625 28.328125 C-8.62107853 27.95439914 -7.29463934 27.06626291 -5 25 C-1.63704165 26.44126786 0.62927102 28.20592655 3 31 C3 31.99 3 32.98 3 34 C-4.03962935 38.39976834 -11.52400966 41.38353794 -20 40 C-27.27731291 37.93585452 -32.66357399 35.45111303 -36.9140625 29.0625 C-40.38599865 22.46831912 -41.31122932 16.06011313 -39.41796875 8.75390625 C-36.93802437 2.94472148 -32.31732207 -0.77028853 -27 -4 C-17.79439651 -7.23900864 -7.84010293 -5.4835402 0 0 Z " fill="#F5F5F6" transform="translate(444,1854)"/>
<path d="M0 0 C4.95 0 9.9 0 15 0 C16.79660158 4.14422933 18.59311369 8.28849723 20.3894043 12.43286133 C20.99937885 13.84011021 21.60940397 15.24733717 22.21948242 16.65454102 C23.1008847 18.68760384 23.98209971 20.72074774 24.86328125 22.75390625 C25.13215652 23.37399063 25.4010318 23.99407501 25.67805481 24.63294983 C27.46250377 28.75086911 29.23435688 32.87399518 31 37 C33.32181274 34.11800917 34.86609807 31.33424514 36.3046875 27.9296875 C36.72363281 26.95 37.14257812 25.9703125 37.57421875 24.9609375 C38.00347656 23.94257812 38.43273437 22.92421875 38.875 21.875 C42.02108704 14.44754068 45.32344331 7.18180429 49 0 C53.29 0 57.58 0 62 0 C60.70212787 3.8936164 59.44291235 7.43393713 57.78515625 11.140625 C57.35114502 12.11717041 56.91713379 13.09371582 56.4699707 14.09985352 C56.00550537 15.13940186 55.54104004 16.1789502 55.0625 17.25 C49.21272935 30.43337118 43.58476772 43.70241962 38 57 C33.38 57 28.76 57 24 57 C21.59765625 51.39453125 19.1953125 45.7890625 16.79296875 40.18359375 C16.53230621 39.57539795 16.27164368 38.96720215 16.00308228 38.34057617 C15.47290219 37.10345527 14.94277155 35.86631318 14.41268921 34.62915039 C13.05834612 31.46841515 11.70311163 28.30806731 10.34619141 25.1484375 C10.07819733 24.52405792 9.81020325 23.89967834 9.53408813 23.25637817 C8.79642034 21.537833 8.05837896 19.81944821 7.3203125 18.10107422 C2 5.60502959 2 5.60502959 2 3 C1.34 3 0.68 3 0 3 C0 2.01 0 1.02 0 0 Z " fill="#F5F6F6" transform="translate(345,1836)"/>
<path d="M0 0 C3.96 0 7.92 0 12 0 C12.33 1.32 12.66 2.64 13 4 C13.86625 3.2884375 13.86625 3.2884375 14.75 2.5625 C19.79411131 -0.94035507 26.08234361 -0.58112532 32 0 C36.70180154 1.3645361 39.38552528 3.22796767 42.4375 7.0625 C44.88213849 11.65842036 45.11871876 14.91390333 45.09765625 20.07421875 C45.0962413 20.7580513 45.09482635 21.44188385 45.09336853 22.1464386 C45.08777876 24.32683722 45.07522822 26.50713251 45.0625 28.6875 C45.05748367 30.16731622 45.052921 31.64713406 45.04882812 33.12695312 C45.03781271 36.75133557 45.02055512 40.3756577 45 44 C40.71 44 36.42 44 32 44 C31.67 34.1 31.34 24.2 31 14 C30.01 13.67 29.02 13.34 28 13 C28 12.34 28 11.68 28 11 C26.41578262 11.03325647 24.83230623 11.10289692 23.25 11.1875 C22.36828125 11.22230469 21.4865625 11.25710938 20.578125 11.29296875 C16.97779726 12.28033136 16.02991051 13.9118323 14 17 C13.36541756 20.07986897 13.36541756 20.07986897 13.390625 23.39453125 C13.35839844 24.59658203 13.32617188 25.79863281 13.29296875 27.03710938 C13.27169922 28.90592773 13.27169922 28.90592773 13.25 30.8125 C13.22035156 32.07771484 13.19070313 33.34292969 13.16015625 34.64648438 C13.08957142 37.76398096 13.0425086 40.8819942 13 44 C8.71 44 4.42 44 0 44 C0 29.48 0 14.96 0 0 Z " fill="#F4F5F6" transform="translate(273,1849)"/>
<path d="M0 0 C7.57130282 4.51056338 7.57130282 4.51056338 8.75 8.5 C8.811875 9.2425 8.87375 9.985 8.9375 10.75 C2.74123832 13.78738318 2.74123832 13.78738318 -0.75 13.625 C-3.0625 12.75 -3.0625 12.75 -4.8125 11.125 C-7.98364591 9.1870775 -10.33960596 9.61304941 -13.93359375 10.19921875 C-16.20878821 10.69811032 -16.20878821 10.69811032 -18.625 12.125 C-20.97495041 16.4162138 -20.6456378 20.9696262 -20.0625 25.75 C-19.33215614 28.50556563 -19.33215614 28.50556563 -18.0625 30.75 C-15.17754794 31.71165069 -13.07656646 31.97728086 -10.0625 32.0625 C-9.19625 32.09988281 -8.33 32.13726563 -7.4375 32.17578125 C-4.88593365 31.96947671 -4.88593365 31.96947671 -3.25 29.73046875 C-2.858125 29.07691406 -2.46625 28.42335938 -2.0625 27.75 C1.8867568 28.30105909 5.28670174 29.13935371 8.9375 30.75 C8.72821707 34.41245132 8.00832794 35.67563067 5.4375 38.375 C-0.63605657 42.98102256 -7.58775288 44.46188068 -15.0625 43.75 C-21.58820967 42.33247794 -26.68729417 38.74607761 -31.0625 33.75 C-33.78442137 29.29651308 -34.47167947 25.94528003 -34.4375 20.75 C-34.44523438 19.574375 -34.45296875 18.39875 -34.4609375 17.1875 C-33.79717471 11.4609191 -31.54320369 7.69472142 -27.1875 4 C-26.53007812 3.42765625 -25.87265625 2.8553125 -25.1953125 2.265625 C-18.33788735 -2.60741705 -7.77980306 -3.14283435 0 0 Z " fill="#F5F6F6" transform="translate(204.0625,1850.25)"/>
<path d="M0 0 C2.54428975 1.86021185 4.65717392 3.77456353 6.65625 6.2109375 C6.65625 7.2009375 6.65625 8.1909375 6.65625 9.2109375 C5.41740681 9.93860753 4.16456659 10.64248565 2.90625 11.3359375 C2.21015625 11.73039062 1.5140625 12.12484375 0.796875 12.53125 C-1.34375 13.2109375 -1.34375 13.2109375 -3.5 12.4296875 C-5.34375 11.2109375 -5.34375 11.2109375 -7.09375 9.5859375 C-10.4131789 7.55739761 -13.61947182 7.40548845 -17.34375 8.2109375 C-20.56329645 10.74547407 -22.04807435 12.32391055 -23.34375 16.2109375 C-23.88131448 21.90912102 -22.94504241 24.76228217 -19.34375 29.2109375 C-16.12366572 30.82097964 -12.82513814 30.82797458 -9.34375 30.2109375 C-7.59052593 29.09902164 -7.59052593 29.09902164 -6.09375 27.6484375 C-5.18625 26.8440625 -4.27875 26.0396875 -3.34375 25.2109375 C-0.96875 25.3984375 -0.96875 25.3984375 0.65625 26.2109375 C0.65625 26.8709375 0.65625 27.5309375 0.65625 28.2109375 C3.13125 29.2009375 3.13125 29.2009375 5.65625 30.2109375 C5.37336523 33.60555478 4.91492941 34.95225809 2.46875 37.3984375 C-4.91067639 42.15406784 -12.83488335 41.92381784 -21.34375 41.2109375 C-27.36300879 39.75004212 -30.60340655 36.24555414 -34.1171875 31.30859375 C-37.57790295 25.39010904 -38.35723651 19.97053058 -37.34375 13.2109375 C-34.86340625 6.76386753 -31.27131771 2.43512731 -25.2734375 -0.94921875 C-17.51488134 -4.32591829 -7.31127459 -4.36817677 0 0 Z " fill="#F6F7F7" transform="translate(492.34375,1851.7890625)"/>
<path d="M0 0 C4.29 0 8.58 0 13 0 C13 3.63 13 7.26 13 11 C16.63 11 20.26 11 24 11 C24 14.3 24 17.6 24 21 C20.37 21 16.74 21 13 21 C13.14040213 24.29198191 13.28706875 27.58347446 13.4375 30.875 C13.47681641 31.81214844 13.51613281 32.74929688 13.55664062 33.71484375 C13.59853516 34.61074219 13.64042969 35.50664063 13.68359375 36.4296875 C13.72025146 37.25710449 13.75690918 38.08452148 13.79467773 38.93701172 C13.88238327 41.06179429 13.88238327 41.06179429 15 43 C17.97 43 20.94 43 24 43 C27.03553801 48.34254689 27.03553801 48.34254689 26.875 51.3125 C26 53 26 53 23 54 C9.45324873 55.17797837 9.45324873 55.17797837 5.25 51.6875 C-0.32388817 45.02980024 -0.14315594 39.50747068 -0.0625 31.1875 C-0.05798828 30.30384766 -0.05347656 29.42019531 -0.04882812 28.50976562 C-0.03709866 26.33981441 -0.01916495 24.16989828 0 22 C-2.31 22 -4.62 22 -7 22 C-7 18.37 -7 14.74 -7 11 C-4.69 11 -2.38 11 0 11 C0 7.37 0 3.74 0 0 Z " fill="#F4F4F5" transform="translate(508,1839)"/>
<path d="M0 0 C4.29 0 8.58 0 13 0 C13.33 1.32 13.66 2.64 14 4 C14.825 3.34 15.65 2.68 16.5 2 C20.34492481 -0.61234126 23.45655064 -0.31334134 28 0 C28 3.96 28 7.92 28 12 C25.339375 12.4021875 25.339375 12.4021875 22.625 12.8125 C19.64691668 13.19907746 19.64691668 13.19907746 17 14 C14.67547376 17.48678936 14.70226266 19.06967571 14.5859375 23.19921875 C14.52792969 25.01196289 14.52792969 25.01196289 14.46875 26.86132812 C14.42234375 28.7552832 14.42234375 28.7552832 14.375 30.6875 C14.31699219 32.59885742 14.31699219 32.59885742 14.2578125 34.54882812 C14.16342602 37.69897694 14.08061965 40.8494688 14 44 C9.38 44 4.76 44 0 44 C0 29.48 0 14.96 0 0 Z " fill="#EEEFF0" transform="translate(593,1849)"/>
<path d="M0 0 C4.29 0 8.58 0 13 0 C13 18.81 13 37.62 13 57 C8.71 57 4.42 57 0 57 C0 38.19 0 19.38 0 0 Z " fill="#F8F9F9" transform="translate(147,1836)"/>
<path d="M0 0 C0.825 0.680625 1.65 1.36125 2.5 2.0625 C4.87803246 4.34546637 4.87803246 4.34546637 8.0625 3.8125 C9.71463309 3.35552702 11.36386204 2.88629311 13 2.375 C15.798739 1.85023644 18.220007 2.49385997 21 3 C20.98839844 4.02480469 20.97679687 5.04960938 20.96484375 6.10546875 C20.95545978 7.466144 20.94636023 8.82682124 20.9375 10.1875 C20.92493164 11.19780273 20.92493164 11.19780273 20.91210938 12.22851562 C20.89393462 15.95434131 21.10700608 19.3788042 22 23 C20.35 23 18.7 23 17 23 C17.33 23.99 17.66 24.98 18 26 C16.35 27.65 14.7 29.3 13 31 C12.34 30.67 11.68 30.34 11 30 C11.639375 29.236875 12.27875 28.47375 12.9375 27.6875 C15.14232781 25.11753287 15.14232781 25.11753287 16 22 C12.34543185 21.24758891 8.68266103 20.59950296 5 20 C4.60554688 20.64839844 4.21109375 21.29679687 3.8046875 21.96484375 C2 24 2 24 -0.3046875 24.56640625 C-7.28330996 24.55580044 -7.28330996 24.55580044 -11.0625 21.625 C-14.72211961 16.66680569 -14.79439317 12.04960951 -14 6 C-10.15596446 0.80535738 -6.3709291 -0.63709291 0 0 Z " fill="#313A46" transform="translate(197,1859)"/>
<path d="M0 0 C3.98106478 1.00716181 6.82131031 3.04565914 9.3359375 6.24609375 C10.78493158 11.46247242 10.66147407 15.14505894 8.2109375 19.87109375 C4.829057 23.816621 3.2369242 24.31086987 -1.9140625 25.05859375 C-5.39543912 24.94776341 -7.08783668 24.08974535 -9.5390625 21.62109375 C-12.31391297 17.85522526 -12.92855606 14.56947534 -12.6171875 9.94140625 C-11.06193263 3.36309851 -6.87634417 -0.64548058 0 0 Z " fill="#323C47" transform="translate(242.0390625,1858.50390625)"/>
<path d="M0 0 C3.37495058 0.02428022 5.14420406 0.59958588 7.75 2.75 C11.47408416 6.56491548 11.6470426 8.83362589 11.60546875 13.98046875 C11.13045493 17.86291503 9.56175755 20.19957757 7.3125 23.375 C3.83986727 25.11131636 0.10056987 24.97690402 -3.6875 24.375 C-6.44319447 22.19340855 -8.12338747 20.50322506 -9.6875 17.375 C-10.30915748 11.86001005 -10.75154786 7.73916392 -7.25 3.25 C-6.404375 2.63125 -5.55875 2.0125 -4.6875 1.375 C-3.6875 0.375 -3.6875 0.375 0 0 Z " fill="#2D3742" transform="translate(560.6875,1858.625)"/>
<path d="M0 0 C3.98799559 2.51417113 4.83107457 3.32429829 6 8 C-0.93 8 -7.86 8 -15 8 C-13.94460224 3.77840895 -13.19804773 2.72774659 -10 0 C-6.18323682 -1.27225439 -3.91280349 -0.87700768 0 0 Z " fill="#343D48" transform="translate(432,1859)"/>
<path d="M0 0 C0.33 0 0.66 0 1 0 C1 14.52 1 29.04 1 44 C-1.65224404 41.34775596 -1.38092023 39.82360236 -1.6328125 36.1171875 C-1.71660156 34.95058594 -1.80039062 33.78398438 -1.88671875 32.58203125 C-1.96535156 31.35871094 -2.04398437 30.13539063 -2.125 28.875 C-2.21136719 27.64394531 -2.29773438 26.41289063 -2.38671875 25.14453125 C-2.59934963 22.096822 -2.80340654 19.04877896 -3 16 C-3.66 16.33 -4.32 16.66 -5 17 C-5.25 11.375 -5.25 11.375 -3 8 C-2.42394752 6.61800253 -1.88296479 5.22094782 -1.375 3.8125 C-1.11460937 3.09707031 -0.85421875 2.38164063 -0.5859375 1.64453125 C-0.39257812 1.10183594 -0.19921875 0.55914063 0 0 Z " fill="#363C3B" transform="translate(503,808)"/>
<path d="M0 0 C2.31 1.98 4.62 3.96 7 6 C5.86220425 10.55118301 4.46006283 11.96189605 1 15 C0.34 15 -0.32 15 -1 15 C-1 14.01 -1 13.02 -1 12 C-0.01 12 0.98 12 2 12 C2.46522293 7.20691658 2.46522293 7.20691658 0.5 3.0625 C0.005 2.711875 -0.49 2.36125 -1 2 C-0.67 1.34 -0.34 0.68 0 0 Z " fill="#E7B50D" transform="translate(753,727)"/>
<path d="M0 0 C0.66 0.99 1.32 1.98 2 3 C1.34 3 0.68 3 0 3 C0.185625 3.78375 0.37125 4.5675 0.5625 5.375 C1 8 1 8 0 10 C-1.97888961 10.72693904 -3.97954558 11.39816251 -6 12 C-4.68139111 7.38486888 -2.78644563 3.90102388 0 0 Z " fill="#F4BC0A" transform="translate(524,754)"/>
<path d="M0 0 C0.66 0.33 1.32 0.66 2 1 C0.6875 3 0.6875 3 -1 5 C-1.99 5 -2.98 5 -4 5 C-4.226875 5.61875 -4.45375 6.2375 -4.6875 6.875 C-6.40554645 9.65659901 -7.90995099 10.09559541 -11 11 C-11.99 11 -12.98 11 -14 11 C-12.23055495 9.53998252 -10.45939429 8.08204407 -8.6875 6.625 C-7.70136719 5.81289063 -6.71523438 5.00078125 -5.69921875 4.1640625 C-3 2 -3 2 0 0 Z " fill="#EAB60D" transform="translate(568,708)"/>
<path d="M0 0 C0.33 0.99 0.66 1.98 1 3 C-3.12324647 7.25209792 -7.51282966 11.13635705 -12 15 C-12 12 -12 12 -9.375 9.08203125 C-8.25750594 7.98449244 -7.13214357 6.89492105 -6 5.8125 C-5.42765625 5.25369141 -4.8553125 4.69488281 -4.265625 4.11914062 C-2.85037212 2.73926907 -1.42602845 1.36873266 0 0 Z " fill="#505861" transform="translate(798,661)"/>
<path d="M0 0 C0.33 0.66 0.66 1.32 1 2 C-7.261959 12.55808656 -7.261959 12.55808656 -12 17 C-12.66 16.67 -13.32 16.34 -14 16 C-13.32453125 15.26394531 -12.6490625 14.52789063 -11.953125 13.76953125 C-11.05200228 12.78392827 -10.15096517 11.79824701 -9.25 10.8125 C-8.36828125 9.84957031 -7.4865625 8.88664062 -6.578125 7.89453125 C-4.29020637 5.32582261 -2.11918393 2.70839628 0 0 Z " fill="#49515A" transform="translate(93,1811)"/>
<path d="M0 0 C2.0625 0.4375 2.0625 0.4375 4 1 C4 1.66 4 2.32 4 3 C4.99 3.33 5.98 3.66 7 4 C6.67 5.98 6.34 7.96 6 10 C3.03595495 7.19195732 0.55500981 4.81684226 -1 1 C-0.67 0.67 -0.34 0.34 0 0 Z " fill="#ECB70B" transform="translate(535,920)"/>
<path d="M0 0 C0.33 0.99 0.66 1.98 1 3 C-2.80411834 6.91939465 -6.81576108 10.49102731 -11 14 C-11.66 13.67 -12.32 13.34 -13 13 C-8.71 8.71 -4.42 4.42 0 0 Z " fill="#616870" transform="translate(462,997)"/>
<path d="M0 0 C0.33 0.99 0.66 1.98 1 3 C-2.80411834 6.91939465 -6.81576108 10.49102731 -11 14 C-11.66 13.67 -12.32 13.34 -13 13 C-8.71 8.71 -4.42 4.42 0 0 Z " fill="#616870" transform="translate(486,973)"/>
<path d="M0 0 C0.33 0.99 0.66 1.98 1 3 C-2.80411834 6.91939465 -6.81576108 10.49102731 -11 14 C-11.66 13.67 -12.32 13.34 -13 13 C-8.71 8.71 -4.42 4.42 0 0 Z " fill="#616870" transform="translate(822,637)"/>
<path d="M0 0 C3.9036874 3.46994436 6.36588975 7.55224006 9 12 C7.68 12 6.36 12 5 12 C5 11.34 5 10.68 5 10 C3.68 9.34 2.36 8.68 1 8 C1.66 8 2.32 8 3 8 C3 7.34 3 6.68 3 6 C2.34 6 1.68 6 1 6 C0.67 4.02 0.34 2.04 0 0 Z " fill="#42423B" transform="translate(525,910)"/>
<path d="M0 0 C0.66 0 1.32 0 2 0 C2.66 0.99 3.32 1.98 4 3 C6.58380177 3.25030977 6.58380177 3.25030977 9 3 C8.01 3.495 8.01 3.495 7 4 C7 5.98 7 7.96 7 10 C6.34 10 5.68 10 5 10 C3.95355934 8.36209288 2.9601817 6.68991979 2 5 C1.01755155 3.65368175 0.02323436 2.31558703 -1 1 C-0.67 0.67 -0.34 0.34 0 0 Z " fill="#343C3C" transform="translate(755,726)"/>
<path d="M0 0 C0.33 0.66 0.66 1.32 1 2 C1.66 2.33 2.32 2.66 3 3 C2.01 4.485 2.01 4.485 1 6 C2.65 6 4.3 6 6 6 C6 6.66 6 7.32 6 8 C0.06 7.01 0.06 7.01 -6 6 C-4.68 5.67 -3.36 5.34 -2 5 C-0.70339566 2.50965614 -0.70339566 2.50965614 0 0 Z " fill="#33393D" transform="translate(679,680)"/>
<path d="M0 0 C0.66 0.66 1.32 1.32 2 2 C1.360625 2.7425 0.72125 3.485 0.0625 4.25 C-1.84811487 6.79748649 -2.40119156 8.00595782 -3 11 C-3.99 12.485 -3.99 12.485 -5 14 C-5.66 14 -6.32 14 -7 14 C-5.53967505 8.68972746 -3.01679014 4.53669968 0 0 Z " fill="#555C66" transform="translate(549,1058)"/>
<path d="M0 0 C0.66 0 1.32 0 2 0 C1.49287967 3.71888239 0.88391785 6.73454239 -1 10 C-1.66 10 -2.32 10 -3 10 C-4 7 -4 7 -3.22265625 5.17578125 C-2.1484375 3.45052083 -1.07421875 1.72526042 0 0 Z " fill="#DCB00E" transform="translate(685,822)"/>
<path d="M0 0 C0.33 0.66 0.66 1.32 1 2 C-0.61594832 4.04119788 -2.2856382 6.04072937 -4 8 C-4.66 8 -5.32 8 -6 8 C-6.66 9.32 -7.32 10.64 -8 12 C-8.99 12 -9.98 12 -11 12 C-7.37 8.04 -3.74 4.08 0 0 Z " fill="#B1CDE1" transform="translate(754,779)"/>
<path d="M0 0 C0 3.26795703 -0.57850516 5.0821948 -2 8 C-2.99 8.66 -3.98 9.32 -5 10 C-5.99 9.34 -6.98 8.68 -8 8 C-5.36 5.36 -2.72 2.72 0 0 Z " fill="#DFB00F" transform="translate(548,724)"/>
<path d="M0 0 C-1.45255699 3.82946843 -3.42895561 5.12050295 -7 7 C-7.33 5.68 -7.66 4.36 -8 3 C-4.93882432 0.37613513 -4.26826873 0 0 0 Z " fill="#F6BE0B" transform="translate(557,720)"/>
<path d="M0 0 C0.33 0 0.66 0 1 0 C1.33 3.3 1.66 6.6 2 10 C0.35 10.33 -1.3 10.66 -3 11 C-2.01 7.37 -1.02 3.74 0 0 Z " fill="#E2B20E" transform="translate(514,772)"/>
<path d="M0 0 C0.66 0.66 1.32 1.32 2 2 C0.07119658 5.40755272 -1.8276509 8.74147635 -4 12 C-4.66 12 -5.32 12 -6 12 C-4.43358249 7.69235185 -2.31663844 3.93828536 0 0 Z " fill="#A9C7DB" transform="translate(716,829)"/>
<path d="M0 0 C3.43595166 1.52708963 6.11912454 3.59927045 9 6 C6.50907189 7.24546405 5.58919267 6.7767578 3 6 C3 5.34 3 4.68 3 4 C2.01 4 1.02 4 0 4 C0 2.68 0 1.36 0 0 Z " fill="#393D3C" transform="translate(561,949)"/>
<path d="M0 0 C0.66 0 1.32 0 2 0 C4.42857143 6.28571429 4.42857143 6.28571429 3 10 C2.67 9.34 2.34 8.68 2 8 C1.01 7.67 0.02 7.34 -1 7 C-0.67 4.69 -0.34 2.38 0 0 Z " fill="#42443B" transform="translate(506,868)"/>
<path d="M0 0 C0.33 0.66 0.66 1.32 1 2 C0.06421005 4.35981813 -0.93347808 6.69631264 -2 9 C-3.32 9 -4.64 9 -6 9 C-4.02 6.03 -2.04 3.06 0 0 Z " fill="#E3B20E" transform="translate(539,733)"/>
<path d="M0 0 C0.99 0.33 1.98 0.66 3 1 C3.125 3.875 3.125 3.875 3 7 C2.34 7.66 1.68 8.32 1 9 C-0.61949011 6.42786866 -1.04408751 5.32330841 -0.625 2.25 C-0.41875 1.5075 -0.2125 0.765 0 0 Z " fill="#303945" transform="translate(498,1852)"/>
<path d="M0 0 C1 3 1 3 1 6 C-1.5 8.1875 -1.5 8.1875 -4 10 C-4.66 9.67 -5.32 9.34 -6 9 C-4.02 6.03 -2.04 3.06 0 0 Z " fill="#434438" transform="translate(708,790)"/>
<path d="M0 0 C1.65 0 3.3 0 5 0 C1.375 5.75 1.375 5.75 -2 8 C-2 7.01 -2 6.02 -2 5 C-1.34 5 -0.68 5 0 5 C-0.33 4.01 -0.66 3.02 -1 2 C-0.67 1.34 -0.34 0.68 0 0 Z " fill="#343D48" transform="translate(754,1804)"/>
<path d="M0 0 C0.33 0.66 0.66 1.32 1 2 C1.99 2.33 2.98 2.66 4 3 C4.69584017 7.02040985 5.1700097 10.08263419 4 14 C3.32739649 12.23141309 2.66211605 10.46003984 2 8.6875 C1.62875 7.70136719 1.2575 6.71523438 0.875 5.69921875 C0 3 0 3 0 0 Z " fill="#AFCEE2" transform="translate(1219,858)"/>
<path d="M0 0 C0.96516243 3.00272755 1.22393475 5.04215769 0 8 C-0.99 8.33 -1.98 8.66 -3 9 C-3.33 8.01 -3.66 7.02 -4 6 C-2.0625 2.8125 -2.0625 2.8125 0 0 Z " fill="#EBB80A" transform="translate(532,742)"/>
<path d="M0 0 C1.67542976 0.28604898 3.34385343 0.61781233 5 1 C3.8141763 4.37503669 2.72426311 6.64722731 0 9 C0.33 6.69 0.66 4.38 1 2 C0.34 1.67 -0.32 1.34 -1 1 C-0.67 0.67 -0.34 0.34 0 0 Z " fill="#373C3A" transform="translate(524,745)"/>
<path d="M0 0 C-1.85625 0.680625 -1.85625 0.680625 -3.75 1.375 C-6.59245495 2.4384007 -9.32663046 3.55192483 -12 5 C-12.99 4.34 -13.98 3.68 -15 3 C-13.25531628 2.29911844 -11.50398839 1.61475991 -9.75 0.9375 C-8.77546875 0.55464844 -7.8009375 0.17179688 -6.796875 -0.22265625 C-3.95992605 -1.01113787 -2.70590448 -1.02437812 0 0 Z " fill="#CDA317" transform="translate(612,690)"/>
<path d="M0 0 C0.33 0.66 0.66 1.32 1 2 C-0.09346881 3.34212062 -1.2001575 4.67347975 -2.3125 6 C-3.23482422 7.11375 -3.23482422 7.11375 -4.17578125 8.25 C-6 10 -6 10 -9 10 C-6.03 6.7 -3.06 3.4 0 0 Z " fill="#D4D6DA" transform="translate(687,1888)"/>
<path d="M0 0 C2.475 0.495 2.475 0.495 5 1 C4.67 3.31 4.34 5.62 4 8 C1.10067643 5.60490662 0.49831724 3.68754757 0 0 Z " fill="#383F4B" transform="translate(551,1873)"/>
<path d="M0 0 C0.66 0.33 1.32 0.66 2 1 C2 1.66 2 2.32 2 3 C2.99 3.33 3.98 3.66 5 4 C5.33 4.99 5.66 5.98 6 7 C3 7 3 7 1.61328125 5.6875 C0.40885417 4.125 -0.79557292 2.5625 -2 1 C-1.34 0.67 -0.68 0.34 0 0 Z " fill="#B9DAF0" transform="translate(599,1296)"/>
<path d="M0 0 C5.41538462 -0.36923077 5.41538462 -0.36923077 8.375 1.5 C8.91125 1.995 9.4475 2.49 10 3 C9.01 3.66 8.02 4.32 7 5 C3.535 3.02 3.535 3.02 0 1 C0 0.67 0 0.34 0 0 Z " fill="#ECB90C" transform="translate(570,954)"/>
<path d="M0 0 C1.32 0.33 2.64 0.66 4 1 C3.01 1 2.02 1 1 1 C1 1.66 1 2.32 1 3 C1.66 3.33 2.32 3.66 3 4 C-4.75 5.125 -4.75 5.125 -7 4 C-4.35261084 2.5393715 -3.10551666 2 0 2 C0 1.34 0 0.68 0 0 Z " fill="#EEB90A" transform="translate(612,688)"/>
<path d="M0 0 C0 0.66 0 1.32 0 2 C-1.41225926 2.67595315 -2.83002905 3.34040059 -4.25 4 C-5.43335938 4.556875 -5.43335938 4.556875 -6.640625 5.125 C-9 6 -9 6 -13 6 C-9.40464172 2.97989905 -4.81374718 0 0 0 Z " fill="#4E555E" transform="translate(585,668)"/>
<path d="M0 0 C0.99 0.66 1.98 1.32 3 2 C1.02 4.31 -0.96 6.62 -3 9 C-3.33 7.68 -3.66 6.36 -4 5 C-2.0625 2.25 -2.0625 2.25 0 0 Z " fill="#353E49" transform="translate(716,1850)"/>
<path d="M0 0 C2.49361571 1.20381448 4.68143083 2.45428722 7 4 C6.67 4.99 6.34 5.98 6 7 C3.69 5.35 1.38 3.7 -1 2 C-0.67 1.34 -0.34 0.68 0 0 Z " fill="#E5B30D" transform="translate(557,943)"/>
<path d="M0 0 C0.33 0.66 0.66 1.32 1 2 C0.67 2.66 0.34 3.32 0 4 C0.66 4.33 1.32 4.66 2 5 C1.01 5 0.02 5 -1 5 C-1.66 6.65 -2.32 8.3 -3 10 C-3.66 10 -4.32 10 -5 10 C-3.66511872 6.40608886 -2.03977277 3.24509304 0 0 Z " fill="#4B525B" transform="translate(501,737)"/>
<path d="M0 0 C2.31 0.33 4.62 0.66 7 1 C7 1.66 7 2.32 7 3 C7.66 3 8.32 3 9 3 C8.34 4.32 7.68 5.64 7 7 C5.83040013 6.02433888 4.66438823 5.044375 3.5 4.0625 C2.8503125 3.51722656 2.200625 2.97195313 1.53125 2.41015625 C1.0259375 1.94480469 0.520625 1.47945312 0 1 C0 0.67 0 0.34 0 0 Z " fill="#474736" transform="translate(740,715)"/>
<path d="M0 0 C0.66 0.33 1.32 0.66 2 1 C0 2.5 0 2.5 -2 4 C-2.680625 4.5775 -3.36125 5.155 -4.0625 5.75 C-4.701875 6.1625 -5.34125 6.575 -6 7 C-6.99 6.67 -7.98 6.34 -9 6 C-7.73295613 3.46591226 -6.56876843 3.06790028 -4.0625 1.8125 C-3.35222656 1.44769531 -2.64195312 1.08289063 -1.91015625 0.70703125 C-1.27980469 0.47371094 -0.64945313 0.24039063 0 0 Z " fill="#535A63" transform="translate(808,703)"/>
<path d="M0 0 C0.66 0.66 1.32 1.32 2 2 C1.34 2 0.68 2 0 2 C-0.33 3.65 -0.66 5.3 -1 7 C-2.65 6.01 -4.3 5.02 -6 4 C-4 2.66666667 -2 1.33333333 0 0 Z " fill="#ECB80B" transform="translate(557,937)"/>
<path d="M0 0 C1.65 0 3.3 0 5 0 C4.34 2.31 3.68 4.62 3 7 C2.67 6.34 2.34 5.68 2 5 C1.34 4.67 0.68 4.34 0 4 C0 2.68 0 1.36 0 0 Z " fill="#F2BD0A" transform="translate(666,858)"/>
<path d="M0 0 C1.32 1.32 2.64 2.64 4 4 C3.67 4.99 3.34 5.98 3 7 C1.0625 6.1875 1.0625 6.1875 -1 5 C-1.33 4.01 -1.66 3.02 -2 2 C-1.34 2 -0.68 2 0 2 C0 1.34 0 0.68 0 0 Z " fill="#38414C" transform="translate(1429,855)"/>
<path d="M0 0 C-0.33 0.99 -0.66 1.98 -1 3 C-2.32 3 -3.64 3 -5 3 C-5.33 3.99 -5.66 4.98 -6 6 C-7.32 5.34 -8.64 4.68 -10 4 C-8.71086513 3.32845067 -7.41859796 2.66291141 -6.125 2 C-5.40570312 1.62875 -4.68640625 1.2575 -3.9453125 0.875 C-2 0 -2 0 0 0 Z " fill="#EBB90D" transform="translate(592,696)"/>
<path d="M0 0 C0.66 0.33 1.32 0.66 2 1 C-0.46153846 5.8 -0.46153846 5.8 -3.1875 6.8125 C-3.785625 6.874375 -4.38375 6.93625 -5 7 C-4.60196439 4.11424181 -4.20990931 3.17810487 -1.9375 1.25 C-1.298125 0.8375 -0.65875 0.425 0 0 Z " fill="#464E57" transform="translate(548,687)"/>
<path d="M0 0 C0.66 0.33 1.32 0.66 2 1 C-3 7.57142857 -3 7.57142857 -8 9 C-7.04270084 7.87411986 -6.08412105 6.7493285 -5.125 5.625 C-4.59132813 4.99851562 -4.05765625 4.37203125 -3.5078125 3.7265625 C-2.38567993 2.44163349 -1.20628025 1.20628025 0 0 Z " fill="#606770" transform="translate(841,618)"/>
<path d="M0 0 C7.50769231 -0.36923077 7.50769231 -0.36923077 10 1.5 C10.495 2.2425 10.495 2.2425 11 3 C9.35 3.66 7.7 4.32 6 5 C6.33 3.68 6.66 2.36 7 1 C4.36 1.33 1.72 1.66 -1 2 C-0.67 1.34 -0.34 0.68 0 0 Z " fill="#5B636B" transform="translate(557,1859)"/>
<path d="M0 0 C0.66 0.66 1.32 1.32 2 2 C-0.31 4.31 -2.62 6.62 -5 9 C-5.66 8.67 -6.32 8.34 -7 8 C-4.69 5.36 -2.38 2.72 0 0 Z " fill="#DADEE1" transform="translate(717,1853)"/>
<path d="M0 0 C0.33 0.99 0.66 1.98 1 3 C-1.31 4.98 -3.62 6.96 -6 9 C-6.66 8.67 -7.32 8.34 -8 8 C-5.36 5.36 -2.72 2.72 0 0 Z " fill="#ADC9DE" transform="translate(1417,1172)"/>
<path d="M0 0 C2.4375 0.375 2.4375 0.375 5 1 C5.33 1.66 5.66 2.32 6 3 C5.0625 5.125 5.0625 5.125 4 7 C2.02 3.535 2.02 3.535 0 0 Z " fill="#EBB80D" transform="translate(522,904)"/>
<path d="M0 0 C0.99 0.33 1.98 0.66 3 1 C4.1875 3.5625 4.1875 3.5625 5 6 C3.68 6 2.36 6 1 6 C0.34 5.34 -0.32 4.68 -1 4 C-0.625 1.875 -0.625 1.875 0 0 Z " fill="#2F3A47" transform="translate(1355,825)"/>
<path d="M0 0 C2.31 0.33 4.62 0.66 7 1 C6.67 1.99 6.34 2.98 6 4 C3.69 3.34 1.38 2.68 -1 2 C-0.67 1.34 -0.34 0.68 0 0 Z " fill="#3A3F3C" transform="translate(697,690)"/>
<path d="M0 0 C1.32 1.32 2.64 2.64 4 4 C0.09567131 4 -2.38026598 3.31626692 -6 2 C-2.25 0.875 -2.25 0.875 0 2 C0 1.34 0 0.68 0 0 Z " fill="#48515A" transform="translate(574,1848)"/>
<path d="M0 0 C2 1 2 1 2 1 Z M-3 0 C-2.01 0.33 -1.02 0.66 0 1 C0 1.66 0 2.32 0 3 C2.31 3 4.62 3 7 3 C7 3.33 7 3.66 7 4 C-0.38461538 4.36923077 -0.38461538 4.36923077 -3.5 2.5 C-3.995 2.005 -4.49 1.51 -5 1 C-4.34 0.67 -3.68 0.34 -3 0 Z " fill="#495867" transform="translate(1310,1228)"/>
<path d="M0 0 C0.66 0.33 1.32 0.66 2 1 C-1.08290155 5.22797927 -1.08290155 5.22797927 -3 7 C-5.8125 7.375 -5.8125 7.375 -8 7 C-5.4837822 4.39391727 -2.94865641 2.10618315 0 0 Z " fill="#ADCCE1" transform="translate(1387,1197)"/>
<path d="M0 0 C0.33 0.99 0.66 1.98 1 3 C-0.65 4.65 -2.3 6.3 -4 8 C-4.66 7.67 -5.32 7.34 -6 7 C-4.02 4.69 -2.04 2.38 0 0 Z " fill="#5A616A" transform="translate(441,1018)"/>
<path d="M0 0 C0.89694794 3.58779175 1.08304117 6.34618837 1 10 C-0.32 10 -1.64 10 -3 10 C-2.01 6.7 -1.02 3.4 0 0 Z " fill="#494738" transform="translate(670,860)"/>
<path d="M0 0 C0.66 0.33 1.32 0.66 2 1 C0.875 2.9375 0.875 2.9375 -1 5 C-4.1875 5.75 -4.1875 5.75 -7 6 C-4.74259377 3.66475218 -2.7194239 1.81294927 0 0 Z " fill="#DCAF0F" transform="translate(568,708)"/>
<path d="M0 0 C0.66 0.33 1.32 0.66 2 1 C2 2.32 2 3.64 2 5 C0.68 5.33 -0.64 5.66 -2 6 C-2 5.34 -2 4.68 -2 4 C-2.66 3.67 -3.32 3.34 -4 3 C-2.68 2.01 -1.36 1.02 0 0 Z " fill="#E8B70D" transform="translate(574,704)"/>
<path d="M0 0 C4.38332057 0.82187261 8.67940177 1.90154282 13 3 C13 3.33 13 3.66 13 4 C7.73946963 4.31563182 4.55426184 3.66590937 0 1 C0 0.67 0 0.34 0 0 Z " fill="#6C727A" transform="translate(787,695)"/>
<path d="M0 0 C0.33 0.66 0.66 1.32 1 2 C-0.13304992 5.39914975 -1.12518475 6.05254451 -4 8 C-4.66 7.67 -5.32 7.34 -6 7 C-4.02 4.69 -2.04 2.38 0 0 Z " fill="#444E57" transform="translate(14,1903)"/>
<path d="M0 0 C0.66 0.33 1.32 0.66 2 1 C-1.78756477 4.61139896 -1.78756477 4.61139896 -4 6 C-6.875 5.8125 -6.875 5.8125 -9 5 C-8.443125 4.731875 -7.88625 4.46375 -7.3125 4.1875 C-4.90178463 2.99670459 -4.90178463 2.99670459 -2.375 1.3125 C-1.59125 0.879375 -0.8075 0.44625 0 0 Z " fill="#4B535C" transform="translate(445,1888)"/>
<path d="M0 0 C-1.98 0.33 -3.96 0.66 -6 1 C-6 2.65 -6 4.3 -6 6 C-7.5 4.625 -7.5 4.625 -9 3 C-9 2.34 -9 1.68 -9 1 C-5.57367167 -0.61798838 -3.61944899 -1.34053666 0 0 Z " fill="#A5C0D3" transform="translate(1205,810)"/>
<path d="M0 0 C1 2 1 2 0.25 5.0625 C-0.1625 6.031875 -0.575 7.00125 -1 8 C-1.99 8.33 -2.98 8.66 -4 9 C-2.94124926 5.59687262 -1.99097846 2.98646769 0 0 Z " fill="#D1A715" transform="translate(522,757)"/>
<path d="M0 0 C1.4540625 0.0309375 1.4540625 0.0309375 2.9375 0.0625 C1.2875 1.7125 -0.3625 3.3625 -2.0625 5.0625 C-2.0625 4.0725 -2.0625 3.0825 -2.0625 2.0625 C-2.7225 1.7325 -3.3825 1.4025 -4.0625 1.0625 C-3.0625 0.0625 -3.0625 0.0625 0 0 Z " fill="#E8B50D" transform="translate(730.0625,760.9375)"/>
<path d="M0 0 C0.99 0.33 1.98 0.66 3 1 C3.33 1.99 3.66 2.98 4 4 C2.68 4.99 1.36 5.98 0 7 C-1.04449911 3.86650268 -0.93423645 3.01031744 0 0 Z " fill="#ECB70B" transform="translate(743,744)"/>
<path d="M0 0 C0.33 0.99 0.66 1.98 1 3 C-1.97 5.475 -1.97 5.475 -5 8 C-5.66 7.67 -6.32 7.34 -7 7 C-4.69 4.69 -2.38 2.38 0 0 Z " fill="#616870" transform="translate(798,661)"/>
<path d="M0 0 C0.66 0.33 1.32 0.66 2 1 C0.68 3.64 -0.64 6.28 -2 9 C-2.33 9 -2.66 9 -3 9 C-3.26218749 5.85375007 -3.24754367 4.38162983 -1.5 1.6875 C-1.005 1.130625 -0.51 0.57375 0 0 Z " fill="#475058" transform="translate(554,1861)"/>
<path d="M0 0 C0.33 0 0.66 0 1 0 C1 3.63 1 7.26 1 11 C0.01 11.33 -0.98 11.66 -2 12 C-1.34 8.04 -0.68 4.08 0 0 Z " fill="#A4BDD0" transform="translate(931,1062)"/>
<path d="M0 0 C0.99 0.33 1.98 0.66 3 1 C0.03 3.475 0.03 3.475 -3 6 C-3.66 5.67 -4.32 5.34 -5 5 C-3.35 3.35 -1.7 1.7 0 0 Z " fill="#565E66" transform="translate(454,1005)"/>
<path d="M0 0 C0.99 0.33 1.98 0.66 3 1 C0.03 3.475 0.03 3.475 -3 6 C-3.66 5.67 -4.32 5.34 -5 5 C-3.35 3.35 -1.7 1.7 0 0 Z " fill="#565E66" transform="translate(478,981)"/>
<path d="M0 0 C0.99 0.33 1.98 0.66 3 1 C3.33 2.65 3.66 4.3 4 6 C2.02 4.68 0.04 3.36 -2 2 C-1.34 1.34 -0.68 0.68 0 0 Z " fill="#364553" transform="translate(1369,836)"/>
<path d="M0 0 C-1.65 1.32 -3.3 2.64 -5 4 C-5.33 2.68 -5.66 1.36 -6 0 C-3.50907189 -1.24546405 -2.58919267 -0.7767578 0 0 Z " fill="#303C4B" transform="translate(746,789)"/>
<path d="M0 0 C3.36720387 1.39332574 4.9859524 2.9789286 7 6 C3.75728494 5.4409112 2.06942576 4.5867822 0 2 C0 1.34 0 0.68 0 0 Z " fill="#414A53" transform="translate(765,700)"/>
<path d="M0 0 C0.99 0.33 1.98 0.66 3 1 C0.03 3.475 0.03 3.475 -3 6 C-3.66 5.67 -4.32 5.34 -5 5 C-3.35 3.35 -1.7 1.7 0 0 Z " fill="#565E66" transform="translate(814,645)"/>
</svg>
